<svg id="Layer_1" xmlns="http://www.w3.org/2000/svg" viewBox="0 0 1866 1200">
  <style>
    .st0{fill:#292a2b}
  </style>
  <g id="_x33_">
    <path class="st0" d="M681.6 603.9c-3.8 14.4-7.8 28.7-12.1 42.9s-8.8 28.5-13.5 42.9h-32.9c-3.4-7.9-7.1-17.4-11.1-28.4s-8.1-22.9-12.4-35.9c-4.3-13-8.6-26.7-13.1-41.2s-8.8-29.1-12.9-43.9h44.6c1.5 6.8 3.2 14.2 5 22.3 1.8 8 3.7 16.3 5.7 24.8s4.1 17.1 6.3 25.7c2.2 8.6 4.4 16.9 6.7 24.8 2.5-8.3 4.9-16.8 7.2-25.6 2.4-8.7 4.6-17.3 6.8-25.7s4.3-16.6 6.3-24.4c2-7.9 3.7-15.2 5.3-22H698c1.5 6.8 3.2 14.1 5.1 22 1.9 7.9 3.9 16 6 24.4s4.3 17 6.5 25.7c2.3 8.7 4.6 17.2 7.1 25.6 2.3-8 4.6-16.2 6.8-24.8 2.3-8.6 4.4-17.2 6.4-25.7s3.9-16.8 5.7-24.8 3.5-15.5 5-22.3h44c-4.2 14.8-8.5 29.4-12.9 43.9-4.5 14.5-8.8 28.2-13.1 41.2s-8.5 24.9-12.5 35.9c-4.1 11-7.8 20.4-11.3 28.4H708c-4.7-14.4-9.4-28.7-13.9-42.9-4.6-14.3-8.7-28.6-12.5-42.9zM813.2 689.6V476.1l42.3-6.8v71.5c2.8-.9 6.5-1.8 10.9-2.7 4.5-.9 8.8-1.3 12.9-1.3 12.1 0 22.2 1.7 30.2 5s14.5 8 19.3 14.1 8.2 13.3 10.2 21.6 3 17.6 3 27.8v84.3h-42.3v-79.2c0-13.6-1.8-23.3-5.3-28.9-3.5-5.7-10-8.5-19.5-8.5-3.8 0-7.3.3-10.6 1s-6.3 1.4-8.9 2.1v113.5h-42.2zM1026.6 497.1c0 7.8-2.5 13.9-7.5 18.3s-10.9 6.7-17.7 6.7-12.7-2.2-17.7-6.7c-5-4.4-7.5-10.5-7.5-18.3s2.5-13.9 7.5-18.3 10.9-6.7 17.7-6.7 12.7 2.2 17.7 6.7 7.5 10.6 7.5 18.3zm-4 192.5h-42.3V540.3h42.3v149.3zM1061 503.1l42.3-6.8v44h50.8v35.2h-50.8V628c0 8.9 1.6 16 4.7 21.3s9.4 7.9 18.9 7.9c4.5 0 9.2-.4 14-1.3 4.8-.8 9.2-2 13.2-3.5l6 32.9c-5.1 2.1-10.8 3.9-17 5.4-6.3 1.5-13.9 2.3-23 2.3-11.5 0-21.1-1.6-28.7-4.7-7.6-3.1-13.6-7.5-18.2-13.1-4.5-5.6-7.7-12.4-9.5-20.3s-2.7-16.7-2.7-26.4V503.1zM1175.6 616.1c0-13.3 2-24.8 6.1-34.8s9.4-18.2 16-24.8 14.2-11.6 22.9-15c8.6-3.4 17.5-5.1 26.6-5.1 21.2 0 37.9 6.5 50.2 19.4 12.3 13 18.5 32 18.5 57.2 0 2.5-.1 5.2-.3 8.1-.2 2.9-.4 5.5-.6 7.8h-96c.9 8.7 5 15.6 12.2 20.7 7.2 5.1 16.8 7.7 29 7.7 7.8 0 15.4-.7 22.9-2.1 7.5-1.4 13.6-3.2 18.3-5.3l5.7 34.3c-2.3 1.1-5.3 2.3-9.1 3.4s-8 2.1-12.6 3-9.6 1.6-14.9 2.1c-5.3.6-10.6.8-15.9.8-13.4 0-25.1-2-35.1-6-9.9-4-18.2-9.4-24.7-16.3s-11.4-15.1-14.5-24.6c-3.1-9.3-4.7-19.6-4.7-30.5zm99.4-16.2c-.2-3.6-.8-7.1-1.8-10.5-1.1-3.4-2.7-6.4-4.8-9.1-2.2-2.7-4.9-4.8-8.2-6.5-3.3-1.7-7.4-2.6-12.4-2.6-4.7 0-8.8.8-12.2 2.4-3.4 1.6-6.3 3.7-8.5 6.4-2.3 2.7-4 5.7-5.3 9.2-1.2 3.5-2.1 7.1-2.7 10.6l55.9.1zM1338.6 614.9c0-10.8 1.7-21 5.3-30.5 3.5-9.6 8.6-17.9 15.2-25s14.7-12.7 24.1-16.9c9.5-4.2 20.2-6.2 32.4-6.2 7.9 0 15.2.7 21.9 2.1 6.6 1.4 13.1 3.5 19.3 6.1l-8.8 33.8c-4-1.5-8.3-2.8-13.1-4-4.7-1.1-10-1.7-15.9-1.7-12.5 0-21.8 3.9-28 11.6-6.2 7.8-9.2 18-9.2 30.7 0 13.4 2.9 23.8 8.7 31.2 5.8 7.4 15.9 11.1 30.2 11.1 5.1 0 10.6-.5 16.5-1.4s11.3-2.5 16.2-4.5l6 34.6c-4.9 2.1-11.1 3.9-18.5 5.4s-15.5 2.3-24.4 2.3c-13.6 0-25.4-2-35.2-6.1-9.8-4.1-17.9-9.6-24.3-16.6-6.3-7-11-15.3-13.9-24.8-3-9.6-4.5-20-4.5-31.2zM1620.2 614.6c0 11.7-1.7 22.5-5.1 32.2-3.4 9.8-8.3 18.1-14.8 25-6.4 6.9-14.2 12.3-23.1 16-9 3.8-19.1 5.7-30.2 5.7-11 0-21-1.9-30-5.7s-16.7-9.1-23.1-16-11.5-15.2-15-25c-3.6-9.7-5.4-20.5-5.4-32.2s1.8-22.4 5.5-32.1c3.7-9.6 8.8-17.9 15.3-24.7s14.3-12.1 23.3-15.9c9-3.8 18.8-5.7 29.4-5.7 10.8 0 20.7 1.9 29.7 5.7s16.7 9.1 23.1 15.9c6.4 6.8 11.5 15 15 24.7 3.6 9.7 5.4 20.4 5.4 32.1zm-43.1 0c0-13.1-2.6-23.3-7.8-30.8-5.2-7.5-12.6-11.2-22.3-11.2-9.7 0-17.1 3.7-22.4 11.2s-7.9 17.7-7.9 30.8 2.6 23.4 7.9 31.1c5.3 7.7 12.8 11.5 22.4 11.5s17.1-3.8 22.3-11.5c5.2-7.6 7.8-18 7.8-31.1zM1693.8 497.1c0 7.8-2.5 13.9-7.5 18.3s-10.9 6.7-17.7 6.7c-6.8 0-12.7-2.2-17.7-6.7-5-4.4-7.5-10.5-7.5-18.3s2.5-13.9 7.5-18.3 10.9-6.7 17.7-6.7c6.8 0 12.7 2.2 17.7 6.7s7.5 10.6 7.5 18.3zm-3.9 192.5h-42.3V540.3h42.3v149.3zM1721.2 545.4c7.2-2.1 16.5-4 27.8-5.8 11.4-1.8 23.3-2.7 35.8-2.7 12.7 0 23.2 1.7 31.7 5 8.4 3.3 15.1 8 20 14.1s8.4 13.3 10.5 21.6 3.1 17.6 3.1 27.8v84.3h-42.3v-79.2c0-13.6-1.8-23.3-5.4-28.9-3.6-5.7-10.3-8.5-20.1-8.5-3 0-6.3.1-9.7.4-3.4.3-6.4.6-9.1 1v115.3h-42.3V545.4z"/>
    <g>
      <linearGradient id="SVGID_1_" gradientUnits="userSpaceOnUse" x1="43.3108" y1="540.8492" x2="431.3812" y2="677.5119" gradientTransform="matrix(1 0 0 -1 0 1197.6899)">
        <stop offset="0" stop-color="#6449de"/>
        <stop offset=".35" stop-color="#854cd9"/>
        <stop offset=".75" stop-color="#aa48d4"/>
        <stop offset="1" stop-color="#bd5afd"/>
      </linearGradient>
      <path d="M236.3 584.9c-6.1 23.2-12.6 46.2-19.4 69-6.8 22.9-14.1 45.9-21.7 69h-53c-5.5-12.8-11.5-28-17.9-45.7s-13.1-36.9-19.9-57.8c-6.9-20.9-13.9-43-21.1-66.3s-14.1-46.8-20.9-70.6h71.8c2.4 11 5.1 22.9 8 35.9s6 26.3 9.2 40 6.6 27.5 10.1 41.4 7.1 27.2 10.8 40c4-13.4 7.8-27.1 11.6-41.1s7.4-27.8 11-41.3c3.5-13.6 6.8-26.7 10-39.3 3.2-12.6 6-24.5 8.5-35.4h49.4c2.4 11 5.2 22.8 8.2 35.4 3.1 12.6 6.2 25.7 9.6 39.3s6.8 27.3 10.5 41.3 7.5 27.7 11.4 41.1c3.7-12.8 7.4-26.1 11-40 3.7-13.9 7.1-27.6 10.3-41.4 3.2-13.7 6.3-27 9.2-40 2.9-12.9 5.6-24.9 8-35.9h71c-6.7 23.8-13.7 47.3-20.9 70.6-7.2 23.3-14.2 45.4-21.1 66.3-6.9 20.9-13.6 40.1-20.2 57.8s-12.6 32.9-18.1 45.7h-53c-7.6-23.1-15.1-46.2-22.4-69-7.2-22.9-13.9-45.9-20-69z" fill="url(#SVGID_1_)"/>
      <g>
        <linearGradient id="SVGID_2_" gradientUnits="userSpaceOnUse" x1="20.6389" y1="605.2291" x2="408.7093" y2="741.8917" gradientTransform="matrix(1 0 0 -1 0 1197.6899)">
          <stop offset="0" stop-color="#6449de"/>
          <stop offset=".35" stop-color="#854cd9"/>
          <stop offset=".75" stop-color="#aa48d4"/>
          <stop offset="1" stop-color="#bd5afd"/>
        </linearGradient>
        <path fill="url(#SVGID_2_)" d="M15.9 560.9h97v32.3h-97z"/>
        <linearGradient id="SVGID_3_" gradientUnits="userSpaceOnUse" x1="36.7113" y1="559.5892" x2="424.7819" y2="696.2519" gradientTransform="matrix(1 0 0 -1 0 1197.6899)">
          <stop offset="0" stop-color="#6449de"/>
          <stop offset=".35" stop-color="#854cd9"/>
          <stop offset=".75" stop-color="#aa48d4"/>
          <stop offset="1" stop-color="#bd5afd"/>
        </linearGradient>
        <path fill="url(#SVGID_3_)" d="M15.9 612.2h97v32.3h-97z"/>
        <linearGradient id="SVGID_4_" gradientUnits="userSpaceOnUse" x1="58.77" y1="496.951" x2="446.8404" y2="633.6136" gradientTransform="matrix(1 0 0 -1 0 1197.6899)">
          <stop offset="0" stop-color="#6449de"/>
          <stop offset=".35" stop-color="#854cd9"/>
          <stop offset=".75" stop-color="#aa48d4"/>
          <stop offset="1" stop-color="#bd5afd"/>
        </linearGradient>
        <path fill="url(#SVGID_4_)" d="M361.5 560.9h97v32.3h-97z"/>
        <linearGradient id="SVGID_5_" gradientUnits="userSpaceOnUse" x1="74.8425" y1="451.3111" x2="462.9129" y2="587.9738" gradientTransform="matrix(1 0 0 -1 0 1197.6899)">
          <stop offset="0" stop-color="#6449de"/>
          <stop offset=".35" stop-color="#854cd9"/>
          <stop offset=".75" stop-color="#aa48d4"/>
          <stop offset="1" stop-color="#bd5afd"/>
        </linearGradient>
        <path fill="url(#SVGID_5_)" d="M361.5 612.2h97v32.3h-97z"/>
      </g>
    </g>
  </g>
</svg>