<svg id="Layer_1" xmlns="http://www.w3.org/2000/svg" viewBox="0 0 1866 1200">
  <style>
    .st0{fill:#292a2b}
  </style>
  <g id="_x38__1_">
    <path class="st0" d="M587.2 548.1h38.2l28.9 93h.5l25.9-93h31.5l26.2 93h.5l28.6-93h37.7l-46.8 143.5h-35.5l-26.5-88.2h-.5l-26.5 88.2h-35.5l-46.7-143.5zM826.1 489.8h39.3v74.8c10.7-11 25.1-19.8 43-19.8 32.3 0 45.7 19.5 45.7 51.8v94.8h-39.3v-95.9c0-12.8-5.1-21.6-18.7-21.6-11.8 0-22.2 6.1-30.7 16.8v100.7h-39.3V489.8zM986.1 491.2h39.3v33.7h-39.3v-33.7zm0 59h39.3v141.3h-39.3V550.2zM1068.9 575.9h-22.7v-27.8h22.7v-35.8h39.3v35.8h39.3v27.8h-39.3v71.3c0 10.7 4 16 13.1 16 7.2 0 13.9-2.4 19.5-6.4l14.4 23.5c-11 8.5-26.2 14.4-41.9 14.4-29.9 0-44.4-14.7-44.4-46.8v-72zM1235.7 544.6c41.1 0 63.9 27 63.9 65.5 0 5.6-.5 13.1-1.3 17.4h-94.6c2.1 24.3 13.6 36.3 35.3 36.3 14.4 0 27.8-4.8 39.8-12.3l16.3 24.8c-17.6 12.3-37.7 18.7-59 18.7-42.2 0-72.1-28.1-72.1-76.1-.2-46 31.9-74.3 71.7-74.3zm-31.3 60.4h58c0-18.2-6.9-32.1-25.7-32.1-16 0-28.5 11.3-32.3 32.1zM1392.3 544.9c17.4 0 35 5.3 50.8 17.6l-19.8 25.4c-8.3-6.4-17.9-11.2-29.9-11.2-19 0-34.5 15-34.5 42.2 0 28.6 15.2 44.4 34.5 44.4 12.8 0 21.4-4.5 30.2-11.8l21.4 22.7c-15.8 13.9-32.3 20.6-52.6 20.6-41.7 0-72.9-28.1-72.9-75.9-.2-46 30.8-74 72.8-74zM1528.5 544.9c40.9 0 71.6 29.1 71.6 73.5 0 47.3-28.9 76.4-71.6 76.4-43.3 0-72.4-29.1-72.4-76.4 0-44.4 31-73.5 72.4-73.5zm0 120.5c20.3 0 32.1-18.4 32.1-46.8 0-26.5-12.8-44.1-32.1-44.1-19.8 0-32.9 17.6-32.9 44.1.1 28.4 11.8 46.8 32.9 46.8zM1627.1 491.2h39.3v33.7h-39.3v-33.7zm0 59h39.3v141.3h-39.3V550.2zM1699.3 548.1h36.9l1.9 16.6c10.4-11 25.7-20 43.6-20 32.1 0 45.7 19.8 45.7 52.1v94.8H1788v-95.9c0-12.8-5.3-21.6-18.7-21.6-12 0-22.4 6.1-31 16.8v100.7h-39V548.1z"/>
    <g>
      <linearGradient id="SVGID_1_" gradientUnits="userSpaceOnUse" x1="24.4419" y1="534.3015" x2="519.6732" y2="713.0088" gradientTransform="matrix(1 0 0 -1 0 1197.6899)">
        <stop offset="0" stop-color="#6449de"/>
        <stop offset=".35" stop-color="#854cd9"/>
        <stop offset=".75" stop-color="#aa48d4"/>
        <stop offset="1" stop-color="#bd5afd"/>
      </linearGradient>
      <path d="M440.1 499.6c0-23.8 21.8-42.5 46.5-37.3 14.4 3 26 14.6 29 29 5.2 24.7-13.5 46.5-37.3 46.5-21.1 0-38.2-17.1-38.2-38.2" fill="url(#SVGID_1_)"/>
      <linearGradient id="SVGID_2_" gradientUnits="userSpaceOnUse" x1="65.6203" y1="420.843" x2="560.8508" y2="599.55" gradientTransform="matrix(1 0 0 -1 0 1197.6899)">
        <stop offset="0" stop-color="#6449de"/>
        <stop offset=".35" stop-color="#854cd9"/>
        <stop offset=".75" stop-color="#aa48d4"/>
        <stop offset="1" stop-color="#bd5afd"/>
      </linearGradient>
      <path d="M239.3 700.4c0-23.8 21.8-42.6 46.5-37.3 14.4 3 25.9 14.6 29 29 5.2 24.7-13.5 46.5-37.3 46.5-21.1 0-38.2-17.1-38.2-38.2" fill="url(#SVGID_2_)"/>
      <linearGradient id="SVGID_3_" gradientUnits="userSpaceOnUse" x1="1.4535" y1="598.488" x2="496.6841" y2="777.1951" gradientTransform="matrix(1 0 0 -1 0 1197.6899)">
        <stop offset="0" stop-color="#6449de"/>
        <stop offset=".35" stop-color="#854cd9"/>
        <stop offset=".75" stop-color="#aa48d4"/>
        <stop offset="1" stop-color="#bd5afd"/>
      </linearGradient>
      <path d="M239.3 499.6c0-23.8 21.8-42.6 46.5-37.3 14.4 3 25.9 14.6 29 29 5.2 24.7-13.5 46.5-37.3 46.5-21.1 0-38.2-17.1-38.2-38.2" fill="url(#SVGID_3_)"/>
      <linearGradient id="SVGID_4_" gradientUnits="userSpaceOnUse" x1="-21.5284" y1="662.6548" x2="473.7021" y2="841.3618" gradientTransform="matrix(1 0 0 -1 0 1197.6899)">
        <stop offset="0" stop-color="#6449de"/>
        <stop offset=".35" stop-color="#854cd9"/>
        <stop offset=".75" stop-color="#aa48d4"/>
        <stop offset="1" stop-color="#bd5afd"/>
      </linearGradient>
      <path d="M38.5 499.6c0-23.8 21.8-42.6 46.5-37.3 14.4 3 26 14.6 29 29 5.2 24.7-13.5 46.5-37.3 46.5-21 0-38.2-17.1-38.2-38.2" fill="url(#SVGID_4_)"/>
      <linearGradient id="SVGID_5_" gradientUnits="userSpaceOnUse" x1="32.3876" y1="513.4117" x2="527.1916" y2="691.9649" gradientTransform="matrix(1 0 0 -1 0 1197.6899)">
        <stop offset="0" stop-color="#6449de"/>
        <stop offset=".35" stop-color="#854cd9"/>
        <stop offset=".75" stop-color="#aa48d4"/>
        <stop offset="1" stop-color="#bd5afd"/>
      </linearGradient>
      <path d="M215.3 693.9c-2.6-16.1-15.7-29-31.8-31.4-1.5-.2-3-.4-4.5-.4-15.8-.6-31-5.8-42.1-17l-5.1-5.1c-10.6-10.6-16.5-24.9-16.4-39.9v-.2c0-10.6-4.3-20.1-11.2-27.1-.4-.5-.9-.8-1.4-1.3-.4-.4-.8-.8-1.3-1.1-15-12.4-37.3-11.6-51.4 2.4-14.1 14.1-14.9 36.3-2.4 51.4.4.4.7.8 1.1 1.2.4.5.8 1 1.3 1.4C57 633.7 66.6 638 77.2 638h.2c14.9 0 29.3 5.9 39.9 16.4l1.8 1.8c12.6 12.6 18.8 30.1 20.3 47.8.1 1.3.3 2.7.6 4 2.9 15.3 15.6 27 30.9 29.7 26.1 4.6 48.6-17.6 44.4-43.8" fill="url(#SVGID_5_)"/>
      <linearGradient id="SVGID_6_" gradientUnits="userSpaceOnUse" x1="43.9192" y1="481.4561" x2="538.7228" y2="660.0091" gradientTransform="matrix(1 0 0 -1 0 1197.6899)">
        <stop offset="0" stop-color="#6449de"/>
        <stop offset=".35" stop-color="#854cd9"/>
        <stop offset=".75" stop-color="#aa48d4"/>
        <stop offset="1" stop-color="#bd5afd"/>
      </linearGradient>
      <path d="M183.5 737.9c16.1-2.6 29.3-15.5 31.8-31.6v-.3c3-20.5 10.7-40.1 25.4-54.8 9.1-9.1 21.7-14 34.5-13.2.7 0 1.5.1 2.2.1 10.6 0 20.1-4.3 27.1-11.2.5-.4.8-.9 1.3-1.4.4-.4.8-.8 1.2-1.3 12.4-15 11.6-37.3-2.4-51.4-14.1-14.1-36.3-14.9-51.4-2.4-.4.3-.8.7-1.2 1.1-.5.4-1 .8-1.4 1.3-6.9 6.9-11.2 16.5-11.2 27.1v.2c.1 14.2-4.5 27.9-14.6 38l-3.6 3.6c-12.6 12.6-29.5 19-47.2 20.5-1.3.1-2.7.3-4.1.6-15.3 2.9-27.7 15.5-30.3 30.8-4.5 26.2 17.7 48.5 43.9 44.3" fill="url(#SVGID_6_)"/>
      <linearGradient id="SVGID_7_" gradientUnits="userSpaceOnUse" x1="244.6741" y1="481.5079" x2="739.4778" y2="660.0609" gradientTransform="matrix(1 0 0 -1 0 1197.6899)">
        <stop offset="0" stop-color="#6449de"/>
        <stop offset=".35" stop-color="#854cd9"/>
        <stop offset=".75" stop-color="#aa48d4"/>
        <stop offset="1" stop-color="#bd5afd"/>
      </linearGradient>
      <path d="M384.2 737.9c16.1-2.6 29.3-15.5 31.8-31.6v-.3c3-20.5 10.7-40.1 25.4-54.8 9.1-9.1 24.1-13.2 36.8-13.2 10.6 0 20.1-4.3 27.1-11.2.5-.4.8-.9 1.3-1.4.4-.4.8-.8 1.2-1.3 12.4-15 11.6-37.3-2.4-51.4-14.1-14.1-36.3-14.9-51.4-2.4-.4.3-.8.7-1.2 1.1-.5.4-1 .8-1.4 1.3-6.9 6.9-11.2 16.5-11.2 27.1v.2c.1 14.2-4.5 27.9-14.6 38l-3.6 3.6c-12.6 12.6-29.5 19-47.2 20.5-1.3.1-2.7.3-4.1.6-15.3 2.9-27.7 15.5-30.3 30.8-4.5 26.3 17.7 48.6 43.8 44.4" fill="url(#SVGID_7_)"/>
    </g>
  </g>
</svg>