<svg id="Layer_1" xmlns="http://www.w3.org/2000/svg" viewBox="0 0 1866 1200" style="cursor:pointer;">
  <style>
    .st0{fill:#292a2b}
  </style>
  <g id="_x34_">
    <path class="st0" d="M740.6 595.9c-3.5 13.5-7.3 26.8-11.3 40.1s-8.2 26.6-12.6 40.1h-30.8c-3.2-7.4-6.7-16.3-10.4-26.5-3.7-10.3-7.6-21.5-11.6-33.6s-8.1-25-12.2-38.5c-4.2-13.5-8.2-27.2-12.1-41h41.7c1.4 6.4 3 13.3 4.7 20.8s3.5 15.3 5.3 23.2c1.9 8 3.8 16 5.9 24 2 8.1 4.1 15.8 6.3 23.2 2.3-7.8 4.5-15.8 6.8-23.9 2.2-8.1 4.3-16.1 6.4-24 2-7.9 4-15.5 5.8-22.8s3.5-14.2 4.9-20.6H756c1.4 6.4 3 13.2 4.8 20.6 1.8 7.3 3.6 15 5.6 22.8 1.9 7.9 4 15.9 6.1 24s4.3 16.1 6.6 23.9c2.1-7.4 4.3-15.2 6.4-23.2 2.1-8 4.2-16.1 6-24 1.9-8 3.6-15.7 5.3-23.2s3.2-14.5 4.7-20.8h41.1c-3.9 13.8-7.9 27.5-12.1 41-4.2 13.5-8.3 26.4-12.2 38.5-4 12.1-7.9 23.3-11.7 33.6s-7.3 19.1-10.5 26.5h-30.8c-4.4-13.4-8.8-26.8-13-40.1-4.2-13.2-8.1-26.6-11.7-40.1zM863.7 676.1V476.5l39.5-6.4V537c2.7-.9 6.1-1.7 10.2-2.5 4.2-.8 8.2-1.2 12.1-1.2 11.3 0 20.7 1.6 28.3 4.6 7.5 3.1 13.5 7.5 18 13.1 4.5 5.7 7.7 12.4 9.6 20.2 1.9 7.8 2.8 16.5 2.8 26V676h-39.5v-74c0-12.7-1.6-21.8-4.9-27.1-3.3-5.3-9.3-8-18.2-8-3.5 0-6.9.3-10 .9-3.1.6-5.9 1.3-8.4 2V676l-39.5.1zM1063.3 496.1c0 7.3-2.3 13-7 17.1-4.7 4.2-10.2 6.2-16.6 6.2s-11.9-2.1-16.6-6.2c-4.7-4.2-7-9.9-7-17.1s2.3-13 7-17.1c4.7-4.1 10.2-6.2 16.6-6.2s11.9 2.1 16.6 6.2c4.6 4.2 7 9.9 7 17.1zm-3.7 180H1020V536.5h39.5l.1 139.6zM1095.4 501.7l39.6-6.4v41.1h47.5v32.9H1135v49.1c0 8.3 1.5 15 4.4 19.9 2.9 5 8.8 7.4 17.7 7.4 4.2 0 8.6-.4 13.1-1.2s8.6-1.9 12.3-3.3l5.6 30.8c-4.8 1.9-10.1 3.6-15.9 5s-13 2.1-21.5 2.1c-10.8 0-19.7-1.5-26.8-4.4-7.1-2.9-12.7-7-17-12.2s-7.2-11.6-8.9-19-2.5-15.7-2.5-24.7l-.1-117.1zM1202.6 607.4c0-12.4 1.9-23.2 5.7-32.5 3.8-9.3 8.8-17 15-23.2s13.3-10.9 21.4-14.1c8-3.2 16.3-4.8 24.8-4.8 19.8 0 35.5 6.1 47 18.2s17.3 30 17.3 53.5c0 2.3-.1 4.8-.3 7.6-.2 2.7-.3 5.2-.5 7.3h-89.7c.9 8.1 4.7 14.6 11.4 19.4 6.7 4.8 15.8 7.2 27.1 7.2 7.3 0 14.4-.7 21.4-2s12.7-3 17.1-4.9l5.3 32.1c-2.1 1.1-5 2.1-8.5 3.2s-7.5 2-11.8 2.8-9 1.5-13.9 2-9.9.8-14.9.8c-12.6 0-23.5-1.9-32.8-5.6-9.3-3.7-17-8.8-23.1-15.3s-10.6-14.1-13.5-23c-3-8.9-4.5-18.5-4.5-28.7zm92.9-15.2c-.2-3.4-.7-6.6-1.7-9.8s-2.5-6-4.5-8.5-4.6-4.5-7.7-6.1-7-2.4-11.6-2.4c-4.4 0-8.2.8-11.4 2.3-3.2 1.5-5.8 3.5-8 6-2.1 2.5-3.8 5.4-4.9 8.6-1.2 3.3-2 6.6-2.5 10l52.3-.1zM1355.1 606.3c0-10.1 1.6-19.6 4.9-28.5s8-16.7 14.2-23.4c6.2-6.6 13.7-11.9 22.6-15.8 8.8-3.9 18.9-5.8 30.3-5.8 7.4 0 14.2.7 20.4 2 6.2 1.3 12.2 3.2 18 5.7l-8.2 31.6c-3.7-1.4-7.8-2.7-12.2-3.7-4.4-1.1-9.4-1.6-14.9-1.6-11.7 0-20.4 3.6-26.1 10.9-5.8 7.3-8.6 16.8-8.6 28.7 0 12.6 2.7 22.3 8.1 29.2s14.8 10.4 28.3 10.4c4.8 0 9.9-.4 15.4-1.3s10.5-2.3 15.1-4.2l5.6 32.4c-4.6 1.9-10.3 3.6-17.3 5-6.9 1.4-14.5 2.1-22.8 2.1-12.7 0-23.7-1.9-32.9-5.7-9.2-3.8-16.8-9-22.7-15.5-5.9-6.6-10.3-14.3-13-23.2-2.9-9.2-4.2-18.9-4.2-29.3zM1618.4 606c0 11-1.6 21-4.8 30.1-3.2 9.1-7.8 16.9-13.8 23.4s-13.2 11.5-21.6 15-17.8 5.3-28.3 5.3c-10.3 0-19.6-1.8-28-5.3s-15.6-8.5-21.6-15-10.7-14.2-14.1-23.4c-3.4-9.1-5-19.2-5-30.1 0-11 1.7-21 5.2-30s8.2-16.7 14.3-23.1c6.1-6.4 13.4-11.3 21.8-14.9 8.4-3.5 17.6-5.3 27.5-5.3 10.1 0 19.3 1.8 27.7 5.3 8.4 3.5 15.6 8.5 21.6 14.9s10.7 14.1 14.1 23.1c3.3 9.1 5 19.1 5 30zm-40.3 0c0-12.2-2.4-21.8-7.3-28.8s-11.8-10.5-20.8-10.5-16 3.5-21 10.5-7.4 16.6-7.4 28.8 2.5 21.9 7.4 29.1 11.9 10.8 21 10.8c9 0 16-3.6 20.8-10.8s7.3-16.9 7.3-29.1zM1687.2 496.1c0 7.3-2.3 13-7 17.1-4.7 4.2-10.2 6.2-16.6 6.2s-11.9-2.1-16.6-6.2c-4.7-4.2-7-9.9-7-17.1s2.3-13 7-17.1c4.7-4.2 10.2-6.2 16.6-6.2s11.9 2.1 16.6 6.2c4.7 4.2 7 9.9 7 17.1zm-3.7 180H1644V536.5h39.5v139.6zM1712.8 541.3c6.7-1.9 15.4-3.8 26-5.4 10.6-1.7 21.8-2.5 33.4-2.5 11.9 0 21.7 1.6 29.6 4.6 7.9 3.1 14.1 7.5 18.7 13.1 4.6 5.7 7.9 12.4 9.8 20.2s2.9 16.5 2.9 26v78.8h-39.6V602c0-12.7-1.7-21.8-5-27.1-3.4-5.3-9.6-8-18.8-8-2.8 0-5.8.1-9 .4-3.2.3-6 .6-8.5.9V676h-39.5V541.3z"/>
    <g>
      <linearGradient id="SVGID_1_" gradientUnits="userSpaceOnUse" x1="194.9816" y1="374.886" x2="526.7342" y2="733.6103" gradientTransform="matrix(1 0 0 -1 0 1197.6899)">
        <stop offset="0" stop-color="#6449de"/>
        <stop offset=".35" stop-color="#854cd9"/>
        <stop offset=".75" stop-color="#aa48d4"/>
        <stop offset="1" stop-color="#bd5afd"/>
      </linearGradient>
      <path d="M382.4 559.8v30.3H466c-.7-8.5-2-22.2-3.9-30.3h-79.7z" fill="url(#SVGID_1_)"/>
      <linearGradient id="SVGID_2_" gradientUnits="userSpaceOnUse" x1="214.5923" y1="356.7499" x2="546.3447" y2="715.4742" gradientTransform="matrix(1 0 0 -1 0 1197.6899)">
        <stop offset="0" stop-color="#6449de"/>
        <stop offset=".35" stop-color="#854cd9"/>
        <stop offset=".75" stop-color="#aa48d4"/>
        <stop offset="1" stop-color="#bd5afd"/>
      </linearGradient>
      <path d="M466 609.9h-99.6v30.3h95.7c1.9-8.1 3.2-21.8 3.9-30.3z" fill="url(#SVGID_2_)"/>
      <linearGradient id="SVGID_3_" gradientUnits="userSpaceOnUse" x1="75.772" y1="485.1324" x2="407.5246" y2="843.8568" gradientTransform="matrix(1 0 0 -1 0 1197.6899)">
        <stop offset="0" stop-color="#6449de"/>
        <stop offset=".35" stop-color="#854cd9"/>
        <stop offset=".75" stop-color="#aa48d4"/>
        <stop offset="1" stop-color="#bd5afd"/>
      </linearGradient>
      <path d="M110.8 640.2h95.7v-30.3h-99.6c.7 8.5 2 22.2 3.9 30.3z" fill="url(#SVGID_3_)"/>
      <linearGradient id="SVGID_4_" gradientUnits="userSpaceOnUse" x1="47.5373" y1="511.2441" x2="379.2899" y2="869.9686" gradientTransform="matrix(1 0 0 -1 0 1197.6899)">
        <stop offset="0" stop-color="#6449de"/>
        <stop offset=".35" stop-color="#854cd9"/>
        <stop offset=".75" stop-color="#aa48d4"/>
        <stop offset="1" stop-color="#bd5afd"/>
      </linearGradient>
      <path d="M110.8 559.8c-1.9 8.1-3.2 21.8-3.9 30.3h83.6v-30.3h-79.7z" fill="url(#SVGID_4_)"/>
      <g>
        <linearGradient id="SVGID_5_" gradientUnits="userSpaceOnUse" x1="121.1725" y1="443.1455" x2="452.9251" y2="801.8699" gradientTransform="matrix(1 0 0 -1 0 1197.6899)">
          <stop offset="0" stop-color="#6449de"/>
          <stop offset=".35" stop-color="#854cd9"/>
          <stop offset=".75" stop-color="#aa48d4"/>
          <stop offset="1" stop-color="#bd5afd"/>
        </linearGradient>
        <path d="M285.8 595.7c-4.7 17.9-9.7 35.6-15 53.2-5.3 17.6-10.9 35.4-16.8 53.2h-40.9c-4.3-9.9-8.8-21.6-13.8-35.3-5-13.6-10.1-28.5-15.4-44.6-5.3-16.1-10.7-33.1-16.3-51.1s-10.9-36.1-16.1-54.5H207c1.9 8.5 4 17.7 6.2 27.7 2.3 10 4.6 20.3 7.1 30.9 2.5 10.6 5.1 21.2 7.8 31.9s5.5 21 8.4 30.9c3.1-10.3 6-20.9 9-31.7 2.9-10.8 5.7-21.4 8.5-31.9 2.7-10.5 5.3-20.6 7.7-30.3 2.5-9.8 4.7-18.9 6.5-27.3h38.1c1.9 8.5 4 17.6 6.3 27.3 2.4 9.8 4.8 19.9 7.4 30.3 2.6 10.5 5.3 21.1 8.1 31.9 2.8 10.8 5.8 21.4 8.8 31.7 2.8-9.9 5.7-20.1 8.5-30.9 2.8-10.7 5.5-21.3 8-31.9 2.5-10.6 4.8-20.9 7.1-30.9s4.3-19.2 6.2-27.7h54.7c-5.2 18.3-10.5 36.5-16.1 54.5-5.5 18-11 35-16.3 51.1s-10.5 31-15.6 44.6-9.7 25.4-14 35.3h-40.9c-5.9-17.9-11.6-35.6-17.3-53.2-5.6-17.6-10.8-35.3-15.4-53.2z" fill="url(#SVGID_5_)"/>
      </g>
      <linearGradient id="SVGID_6_" gradientUnits="userSpaceOnUse" x1="133.2063" y1="432.0166" x2="464.959" y2="790.7409" gradientTransform="matrix(1 0 0 -1 0 1197.6899)">
        <stop offset="0" stop-color="#6449de"/>
        <stop offset=".35" stop-color="#854cd9"/>
        <stop offset=".75" stop-color="#aa48d4"/>
        <stop offset="1" stop-color="#bd5afd"/>
      </linearGradient>
      <path d="M286.5 346.2C146.3 346.2 32.6 459.8 32.6 600s113.6 253.8 253.8 253.8S540.2 740.2 540.2 600c.1-140.2-113.6-253.8-253.7-253.8zm0 467.3C168.6 813.5 73 717.9 73 600s95.6-213.5 213.5-213.5S500 482.1 500 600s-95.6 213.5-213.5 213.5z" fill="url(#SVGID_6_)"/>
    </g>
  </g>
</svg>