<svg xmlns="http://www.w3.org/2000/svg" viewBox="0 0 1866 1200">
  <style>
    .st1{fill:#292a2b}.st4{display:none}.st5{fill:#fff}.st5,.st6{display:inline}
  </style>
  <g id="_x31_">
    <path fill="none" d="M0 0h1866v1200H0z"/>
    <path class="st1" d="M788.7 602.9c-3.3 12.6-6.9 25.2-10.6 37.7-3.8 12.5-7.7 25-11.9 37.7h-29c-3-7-6.3-15.3-9.8-25-3.5-9.6-7.1-20.2-10.9-31.6-3.8-11.4-7.6-23.5-11.5-36.2-3.9-12.7-7.7-25.6-11.4-38.6H733c1.3 6 2.8 12.5 4.4 19.6 1.6 7.1 3.3 14.4 5 21.8 1.8 7.5 3.6 15 5.5 22.6 1.9 7.6 3.9 14.8 5.9 21.8 2.2-7.3 4.3-14.8 6.4-22.5 2.1-7.6 4.1-15.2 6-22.6 1.9-7.4 3.8-14.6 5.5-21.5 1.7-6.9 3.3-13.4 4.6-19.3h26.9c1.3 6 2.8 12.4 4.5 19.3 1.7 6.9 3.4 14.1 5.2 21.5 1.8 7.4 3.7 14.9 5.7 22.6 2 7.7 4.1 15.1 6.2 22.5 2-7 4-14.3 6-21.8 2-7.6 3.9-15.1 5.7-22.6 1.7-7.5 3.4-14.8 5-21.8 1.6-7.1 3.1-13.6 4.4-19.6h38.7c-3.7 13-7.5 25.8-11.4 38.6-3.9 12.7-7.8 24.8-11.5 36.2-3.8 11.4-7.4 21.9-11 31.6-3.6 9.7-6.9 18-9.9 25h-28.9c-4.2-12.6-8.2-25.2-12.2-37.7-4-12.5-7.6-25.1-11-37.7zM904.4 678.2V490.6l37.2-6v62.9c2.5-.8 5.7-1.6 9.6-2.4 3.9-.8 7.7-1.1 11.4-1.1 10.6 0 19.5 1.5 26.6 4.4 7.1 2.9 12.7 7 17 12.4 4.2 5.3 7.2 11.6 9 19 1.8 7.3 2.6 15.5 2.6 24.4v74.1h-37.2v-69.6c0-12-1.5-20.5-4.6-25.4-3.1-5-8.8-7.5-17.1-7.5-3.3 0-6.4.3-9.4.9-2.9.6-5.5 1.2-7.9 1.9v99.8h-37.2zM1092 509.1c0 6.8-2.2 12.2-6.6 16.1-4.4 3.9-9.6 5.9-15.6 5.9s-11.2-2-15.6-5.9c-4.4-3.9-6.6-9.3-6.6-16.1 0-6.8 2.2-12.2 6.6-16.1 4.4-3.9 9.6-5.9 15.6-5.9s11.2 2 15.6 5.9c4.4 3.9 6.6 9.2 6.6 16.1zm-3.5 169.1h-37.2V547h37.2v131.2zM1122.2 514.3l37.2-6V547h44.7v30.9h-44.7v46.2c0 7.8 1.4 14.1 4.1 18.7 2.7 4.7 8.3 7 16.6 7 4 0 8.1-.4 12.3-1.1 4.2-.7 8.1-1.8 11.6-3.1l5.2 28.9c-4.5 1.8-9.5 3.4-15 4.7-5.5 1.3-12.2 2-20.2 2-10.1 0-18.6-1.4-25.2-4.1-6.7-2.7-12-6.6-16-11.5s-6.8-10.9-8.4-17.8c-1.6-7-2.4-14.7-2.4-23.2V514.3zM1223 613.6c0-11.6 1.8-21.8 5.4-30.6 3.6-8.7 8.3-16 14.1-21.8 5.8-5.8 12.5-10.2 20.1-13.2 7.6-3 15.3-4.5 23.3-4.5 18.6 0 33.3 5.7 44.2 17.1 10.8 11.4 16.2 28.2 16.2 50.3 0 2.2-.1 4.5-.3 7.1-.2 2.6-.3 4.9-.5 6.9h-84.3c.8 7.7 4.4 13.7 10.7 18.2 6.3 4.5 14.8 6.7 25.5 6.7 6.8 0 13.5-.6 20.1-1.9 6.6-1.3 11.9-2.8 16.1-4.6l5 30.2c-2 1-4.7 2-8 3s-7 1.9-11.1 2.6c-4.1.8-8.4 1.4-13.1 1.9-4.6.5-9.3.7-14 .7-11.8 0-22.1-1.7-30.8-5.2s-16-8.3-21.7-14.3c-5.7-6.1-10-13.3-12.7-21.6-2.8-8.3-4.2-17.3-4.2-27zm87.3-14.2c-.2-3.2-.7-6.2-1.6-9.2-.9-3-2.3-5.7-4.2-8-1.9-2.3-4.3-4.2-7.2-5.7-2.9-1.5-6.5-2.2-10.9-2.2-4.2 0-7.7.7-10.7 2.1-3 1.4-5.5 3.3-7.5 5.6s-3.5 5-4.6 8.1c-1.1 3.1-1.9 6.2-2.4 9.4h49.1zM1366.3 612.6c0-9.5 1.5-18.4 4.6-26.8 3.1-8.4 7.5-15.7 13.3-22 5.8-6.2 12.9-11.2 21.2-14.8 8.3-3.7 17.8-5.5 28.4-5.5 7 0 13.4.6 19.2 1.9 5.8 1.3 11.5 3 17 5.4l-7.7 29.7c-3.5-1.3-7.3-2.5-11.5-3.5s-8.8-1.5-14-1.5c-11 0-19.2 3.4-24.6 10.2-5.4 6.8-8.1 15.8-8.1 27 0 11.8 2.5 21 7.6 27.4 5.1 6.5 13.9 9.7 26.6 9.7 4.5 0 9.3-.4 14.5-1.2 5.2-.8 9.9-2.2 14.2-4l5.2 30.4c-4.3 1.8-9.7 3.4-16.2 4.7-6.5 1.3-13.6 2-21.5 2-12 0-22.3-1.8-30.9-5.4-8.7-3.6-15.8-8.4-21.3-14.6-5.6-6.2-9.7-13.4-12.2-21.8s-3.8-17.5-3.8-27.3zM1613.8 612.4c0 10.3-1.5 19.8-4.5 28.3-3 8.6-7.3 15.9-13 22s-12.5 10.8-20.3 14.1c-7.9 3.3-16.8 5-26.6 5-9.7 0-18.4-1.7-26.3-5-7.9-3.3-14.7-8-20.3-14.1-5.7-6.1-10.1-13.4-13.2-22-3.2-8.6-4.7-18-4.7-28.3s1.6-19.7 4.9-28.2c3.2-8.5 7.7-15.7 13.5-21.7 5.7-6 12.6-10.6 20.5-14 7.9-3.3 16.5-5 25.8-5 9.5 0 18.2 1.7 26.1 5 7.9 3.3 14.7 8 20.3 14 5.7 6 10.1 13.2 13.2 21.7 3 8.5 4.6 17.9 4.6 28.2zm-37.9 0c0-11.5-2.3-20.5-6.9-27.1-4.6-6.6-11.1-9.9-19.6-9.9-8.5 0-15.1 3.3-19.7 9.9-4.7 6.6-7 15.6-7 27.1s2.3 20.6 7 27.3c4.7 6.7 11.2 10.1 19.7 10.1s15-3.4 19.6-10.1 6.9-15.9 6.9-27.3zM1678.5 509.1c0 6.8-2.2 12.2-6.6 16.1-4.4 3.9-9.6 5.9-15.6 5.9s-11.2-2-15.6-5.9c-4.4-3.9-6.6-9.3-6.6-16.1 0-6.8 2.2-12.2 6.6-16.1 4.4-3.9 9.6-5.9 15.6-5.9s11.2 2 15.6 5.9c4.4 3.9 6.6 9.2 6.6 16.1zm-3.5 169.1h-37.2V547h37.2v131.2zM1702.6 551.5c6.3-1.8 14.5-3.5 24.4-5.1 10-1.6 20.5-2.4 31.4-2.4 11.1 0 20.4 1.5 27.8 4.4 7.4 2.9 13.3 7 17.6 12.4 4.3 5.3 7.4 11.6 9.2 19s2.8 15.5 2.8 24.4v74.1h-37.2v-69.6c0-12-1.6-20.5-4.7-25.4s-9.1-7.5-17.7-7.5c-2.7 0-5.5.1-8.5.4-3 .2-5.7.5-8 .9v101.3h-37.2V551.5z"/>
    <g>
      <radialGradient id="SVGID_1_" cx="502.0192" cy="597.3854" r="245.9633" gradientUnits="userSpaceOnUse">
        <stop offset="0" stop-color="#eef8fd"/>
        <stop offset=".5323" stop-color="#d8e2e7"/>
        <stop offset="1" stop-color="#c3d4dd"/>
      </radialGradient>
      <path d="M309.3 340.8c-143.1 0-259.2 116-259.2 259.2s116.1 259.2 259.2 259.2c143.2 0 259.2-116.1 259.2-259.2s-116-259.2-259.2-259.2zm0 398.2c-76.8 0-139-62.2-139-139s62.2-139 139-139 139 62.2 139 139-62.2 139-139 139z" fill="url(#SVGID_1_)"/>
      <linearGradient id="SVGID_2_" gradientUnits="userSpaceOnUse" x1="109.3136" y1="817.439" x2="439.0518" y2="459.028">
        <stop offset="0" stop-color="#6449de"/>
        <stop offset=".35" stop-color="#854cd9"/>
        <stop offset=".75" stop-color="#aa48d4"/>
        <stop offset="1" stop-color="#bd5afd"/>
      </linearGradient>
      <path d="M362.6 728.5c-18.5 7.7-39 11.5-60.5 10.4-71.3-3.6-128.9-62.1-131.7-133.4-3-79.3 60.3-144.4 138.9-144.4 18.7 0 36.5 3.7 52.8 10.4 32.7 13.5 70.3 5.5 95.4-19.6l35.1-35.1c-48-48-114.7-77.2-188.2-75.9C169.3 343.4 57.6 451.1 50.5 586c-7.8 149.5 111.1 273.2 258.8 273.2 71.6 0 136.4-29 183.3-75.9l-35.1-35.1c-24.9-24.9-62.4-33.2-94.9-19.7z" fill="url(#SVGID_2_)"/>
    </g>
  </g>
  <g id="_x32_" class="st4">
    <path class="st5" d="M0 0h1866v1200H0z"/>
    <g class="st6">
      <path class="st1" d="M770 689.6h-11.8L719.9 604l-38.1 85.7h-12l-52.6-142h34.2l28 83.2 34.1-83.2h11.7l35.3 83.7 30.2-83.7h32L770 689.6zM932.2 687v-85.9c0-8.6-2.7-15.5-8.1-20.7-5.4-5.2-12.4-7.8-21.1-7.8-5.4 0-10.8 1.5-16.3 4.4-5.5 2.9-9.4 6.2-11.7 10v100h-33.1V495.7l33.1-7.8v68.6c8.4-7.6 20-11.5 34.8-11.5 17.4 0 31 4.8 40.6 14.5 9.6 9.7 14.4 23.5 14.4 41.6V687h-32.6zM1008.7 687V574.3h-17.8v-26.7h50.8V687h-33zm16.8-193.4c5.2 0 9.7 1.8 13.3 5.5 3.7 3.7 5.5 8.1 5.5 13.3 0 5.2-1.8 9.7-5.5 13.3-3.7 3.7-8.1 5.5-13.3 5.5-5.2 0-9.7-1.8-13.3-5.5-3.7-3.7-5.5-8.1-5.5-13.3 0-5.2 1.8-9.7 5.5-13.3 3.6-3.7 8.1-5.5 13.3-5.5zM1084.5 573.8h-16.1v-26.2h16.1v-28.4l32.5-12v40.4h38.3v26.2H1117v61c0 10 1.6 17 4.7 21.1 3.1 4.1 8.6 6.2 16.4 6.2s15.1-2.1 21.9-6.4v29.9c-7.5 2.6-18.3 3.9-32.3 3.9-13.9 0-24.6-3.9-32-11.8s-11.2-19-11.2-33.5v-70.4zM1309.6 627.3H1210c.6 11.1 4.4 19.7 11.5 25.9 7 6.2 16.5 9.2 28.4 9.2 14.8 0 26.1-3.9 33.8-11.6l12.6 24.9c-11.5 9.3-28.6 13.9-51.3 13.9-21.3 0-38.1-6.2-50.4-18.7-12.4-12.5-18.5-29.8-18.5-52.1 0-21.9 6.8-39.7 20.4-53.4 13.6-13.6 29.9-20.4 48.9-20.4 20.2 0 36.5 6 48.7 18.1 12.2 12.1 18.4 27.4 18.4 46.1-.1 4-1 10-2.9 18.1zm-98.4-24.5h68.5c-2.3-20.4-13.5-30.6-33.8-30.6-18.6 0-30.2 10.2-34.7 30.6zM1447.7 558.7l-13.9 24.3c-7.6-7.2-17.9-10.8-30.7-10.8-12.3 0-22.1 4.1-29.2 12.3-7.2 8.2-10.7 19.5-10.7 34 0 29.2 13.9 43.9 41.8 43.9 12.1 0 22.7-4 31.9-12l12 25.7c-9.5 5.9-17.7 9.6-24.8 11.2s-15.4 2.3-25.1 2.3c-21.5 0-38.5-6.3-51-18.8s-18.7-30-18.7-52.3c0-21.9 6.8-39.7 20.4-53.2 13.6-13.5 32.2-20.3 55.7-20.3 16.3 0 30.4 4.5 42.3 13.7zM1465.7 617c0-21.3 6.1-38.6 18.4-51.9 12.3-13.4 28.5-20 48.6-20 21.2 0 37.6 6.4 49.3 19.3 11.7 12.8 17.6 30.4 17.6 52.7 0 22.2-6 39.9-17.9 53-11.9 13.1-28.3 19.7-49 19.7-21.2 0-37.6-6.6-49.4-19.9-11.7-13.4-17.6-31-17.6-52.9zm33.9 0c0 30.7 11.1 46.1 33.2 46.1 10.1 0 18.2-4 24.1-12 5.9-8 8.9-19.4 8.9-34.1 0-30.3-11-45.4-33.1-45.4-10.2 0-18.2 4-24.2 12-6 7.9-8.9 19.1-8.9 33.4zM1634.4 687V574.3h-17.8v-26.7h50.8V687h-33zm16.8-193.4c5.2 0 9.7 1.8 13.3 5.5 3.7 3.7 5.5 8.1 5.5 13.3 0 5.2-1.8 9.7-5.5 13.3-3.7 3.7-8.1 5.5-13.3 5.5-5.2 0-9.7-1.8-13.3-5.5-3.7-3.7-5.5-8.1-5.5-13.3 0-5.2 1.8-9.7 5.5-13.3 3.6-3.7 8.1-5.5 13.3-5.5zM1794.9 687v-80.6c0-11.9-2.3-20.6-6.8-26-4.6-5.5-12-8.2-22.3-8.2-4.8 0-9.9 1.3-15.3 4s-9.7 6-12.7 10V687h-32.5V547.6h23.4l6 13c8.9-10.4 21.9-15.6 39.2-15.6 16.6 0 29.7 5 39.2 14.9 9.6 9.9 14.4 23.8 14.4 41.6V687h-32.6z"/>
      <g>
        <linearGradient id="SVGID_3_" gradientUnits="userSpaceOnUse" x1="72.6602" y1="715.8986" x2="486.1328" y2="589.6285">
          <stop offset="0" stop-color="#6449de"/>
          <stop offset=".35" stop-color="#854cd9"/>
          <stop offset=".75" stop-color="#aa48d4"/>
          <stop offset="1" stop-color="#bd5afd"/>
        </linearGradient>
        <path d="M501.4 523.2c-14.6-14.6-38.4-14.6-53 0l-125 125c-14.6 14.6-14.6 38.4 0 53 14.6 14.6 38.4 14.6 53 0l125-125c14.6-14.7 14.6-38.4 0-53z" fill="url(#SVGID_3_)"/>
        <linearGradient id="SVGID_4_" gradientUnits="userSpaceOnUse" x1="49.3021" y1="639.4125" x2="462.7747" y2="513.1424">
          <stop offset="0" stop-color="#6449de"/>
          <stop offset=".35" stop-color="#854cd9"/>
          <stop offset=".75" stop-color="#aa48d4"/>
          <stop offset="1" stop-color="#bd5afd"/>
        </linearGradient>
        <path d="M352.5 523.2c-14.6-14.6-38.4-14.6-53 0L201 621.6l-98.5-98.5c-14.6-14.6-38.4-14.6-53 0-14.6 14.6-14.6 38.4 0 53L174.4 701s0 .1.1.1c7.3 7.3 16.9 11 26.5 11 9.6 0 19.2-3.7 26.5-11 0 0 0-.1.1-.1l124.9-124.9c14.6-14.6 14.6-38.3 0-52.9z" fill="url(#SVGID_4_)"/>
        <path d="M201 712.1c9.6 0 19.2-3.7 26.5-11 14.7-14.6 14.7-38.3.1-53L201 621.6l-26.6 26.6c-14.6 14.6-14.6 38.4.1 53 7.3 7.3 16.9 10.9 26.5 10.9z" opacity=".13" fill="#fff"/>
      </g>
    </g>
  </g>
  <g id="_x33_" class="st4">
    <path class="st5" d="M0 0h1866v1200H0z"/>
    <g class="st6">
      <path class="st1" d="M681.6 603.9c-3.8 14.4-7.8 28.7-12.1 42.9s-8.8 28.5-13.5 42.9h-32.9c-3.4-7.9-7.1-17.4-11.1-28.4s-8.1-22.9-12.4-35.9c-4.3-13-8.6-26.7-13.1-41.2-4.5-14.5-8.8-29.1-12.9-43.9h44.6c1.5 6.8 3.2 14.2 5 22.3 1.8 8 3.7 16.3 5.7 24.8s4.1 17.1 6.3 25.7c2.2 8.6 4.4 16.9 6.7 24.8 2.5-8.3 4.9-16.8 7.2-25.6 2.4-8.7 4.6-17.3 6.8-25.7 2.2-8.4 4.3-16.6 6.3-24.4 2-7.9 3.7-15.2 5.3-22H698c1.5 6.8 3.2 14.1 5.1 22 1.9 7.9 3.9 16 6 24.4 2.1 8.4 4.3 17 6.5 25.7 2.3 8.7 4.6 17.2 7.1 25.6 2.3-8 4.6-16.2 6.8-24.8 2.3-8.6 4.4-17.2 6.4-25.7s3.9-16.8 5.7-24.8c1.8-8 3.5-15.5 5-22.3h44c-4.2 14.8-8.5 29.4-12.9 43.9-4.5 14.5-8.8 28.2-13.1 41.2-4.3 13-8.5 24.9-12.5 35.9-4.1 11-7.8 20.4-11.3 28.4H708c-4.7-14.4-9.4-28.7-13.9-42.9-4.6-14.3-8.7-28.6-12.5-42.9zM813.2 689.6V476.1l42.3-6.8v71.5c2.8-.9 6.5-1.8 10.9-2.7 4.5-.9 8.8-1.3 12.9-1.3 12.1 0 22.2 1.7 30.2 5s14.5 8 19.3 14.1c4.8 6.1 8.2 13.3 10.2 21.6s3 17.6 3 27.8v84.3h-42.3v-79.2c0-13.6-1.8-23.3-5.3-28.9-3.5-5.7-10-8.5-19.5-8.5-3.8 0-7.3.3-10.6 1s-6.3 1.4-8.9 2.1v113.5h-42.2zM1026.6 497.1c0 7.8-2.5 13.9-7.5 18.3s-10.9 6.7-17.7 6.7c-6.8 0-12.7-2.2-17.7-6.7-5-4.4-7.5-10.5-7.5-18.3s2.5-13.9 7.5-18.3 10.9-6.7 17.7-6.7c6.8 0 12.7 2.2 17.7 6.7s7.5 10.6 7.5 18.3zm-4 192.5h-42.3V540.3h42.3v149.3zM1061 503.1l42.3-6.8v44h50.8v35.2h-50.8V628c0 8.9 1.6 16 4.7 21.3 3.1 5.3 9.4 7.9 18.9 7.9 4.5 0 9.2-.4 14-1.3 4.8-.8 9.2-2 13.2-3.5l6 32.9c-5.1 2.1-10.8 3.9-17 5.4-6.3 1.5-13.9 2.3-23 2.3-11.5 0-21.1-1.6-28.7-4.7-7.6-3.1-13.6-7.5-18.2-13.1-4.5-5.6-7.7-12.4-9.5-20.3s-2.7-16.7-2.7-26.4V503.1zM1175.6 616.1c0-13.3 2-24.8 6.1-34.8s9.4-18.2 16-24.8c6.6-6.6 14.2-11.6 22.9-15 8.6-3.4 17.5-5.1 26.6-5.1 21.2 0 37.9 6.5 50.2 19.4 12.3 13 18.5 32 18.5 57.2 0 2.5-.1 5.2-.3 8.1-.2 2.9-.4 5.5-.6 7.8h-96c.9 8.7 5 15.6 12.2 20.7 7.2 5.1 16.8 7.7 29 7.7 7.8 0 15.4-.7 22.9-2.1 7.5-1.4 13.6-3.2 18.3-5.3l5.7 34.3c-2.3 1.1-5.3 2.3-9.1 3.4s-8 2.1-12.6 3c-4.6.9-9.6 1.6-14.9 2.1-5.3.6-10.6.8-15.9.8-13.4 0-25.1-2-35.1-6-9.9-4-18.2-9.4-24.7-16.3s-11.4-15.1-14.5-24.6c-3.1-9.3-4.7-19.6-4.7-30.5zm99.4-16.2c-.2-3.6-.8-7.1-1.8-10.5-1.1-3.4-2.7-6.4-4.8-9.1-2.2-2.7-4.9-4.8-8.2-6.5-3.3-1.7-7.4-2.6-12.4-2.6-4.7 0-8.8.8-12.2 2.4-3.4 1.6-6.3 3.7-8.5 6.4-2.3 2.7-4 5.7-5.3 9.2-1.2 3.5-2.1 7.1-2.7 10.6h55.9zM1338.6 614.9c0-10.8 1.7-21 5.3-30.5 3.5-9.6 8.6-17.9 15.2-25 6.6-7.1 14.7-12.7 24.1-16.9 9.5-4.2 20.2-6.2 32.4-6.2 7.9 0 15.2.7 21.9 2.1 6.6 1.4 13.1 3.5 19.3 6.1l-8.8 33.8c-4-1.5-8.3-2.8-13.1-4-4.7-1.1-10-1.7-15.9-1.7-12.5 0-21.8 3.9-28 11.6-6.2 7.8-9.2 18-9.2 30.7 0 13.4 2.9 23.8 8.7 31.2 5.8 7.4 15.9 11.1 30.2 11.1 5.1 0 10.6-.5 16.5-1.4s11.3-2.5 16.2-4.5l6 34.6c-4.9 2.1-11.1 3.9-18.5 5.4-7.4 1.5-15.5 2.3-24.4 2.3-13.6 0-25.4-2-35.2-6.1-9.8-4.1-17.9-9.6-24.3-16.6-6.3-7-11-15.3-13.9-24.8-3-9.6-4.5-20-4.5-31.2zM1620.2 614.6c0 11.7-1.7 22.5-5.1 32.2-3.4 9.8-8.3 18.1-14.8 25-6.4 6.9-14.2 12.3-23.1 16-9 3.8-19.1 5.7-30.2 5.7-11 0-21-1.9-30-5.7-9-3.8-16.7-9.1-23.1-16-6.4-6.9-11.5-15.2-15-25-3.6-9.7-5.4-20.5-5.4-32.2s1.8-22.4 5.5-32.1c3.7-9.6 8.8-17.9 15.3-24.7 6.5-6.8 14.3-12.1 23.3-15.9 9-3.8 18.8-5.7 29.4-5.7 10.8 0 20.7 1.9 29.7 5.7 9 3.8 16.7 9.1 23.1 15.9 6.4 6.8 11.5 15 15 24.7 3.6 9.7 5.4 20.4 5.4 32.1zm-43.1 0c0-13.1-2.6-23.3-7.8-30.8-5.2-7.5-12.6-11.2-22.3-11.2-9.7 0-17.1 3.7-22.4 11.2-5.3 7.5-7.9 17.7-7.9 30.8 0 13.1 2.6 23.4 7.9 31.1 5.3 7.7 12.8 11.5 22.4 11.5 9.6 0 17.1-3.8 22.3-11.5 5.2-7.6 7.8-18 7.8-31.1zM1693.8 497.1c0 7.8-2.5 13.9-7.5 18.3s-10.9 6.7-17.7 6.7c-6.8 0-12.7-2.2-17.7-6.7-5-4.4-7.5-10.5-7.5-18.3s2.5-13.9 7.5-18.3 10.9-6.7 17.7-6.7c6.8 0 12.7 2.2 17.7 6.7s7.5 10.6 7.5 18.3zm-3.9 192.5h-42.3V540.3h42.3v149.3zM1721.2 545.4c7.2-2.1 16.5-4 27.8-5.8 11.4-1.8 23.3-2.7 35.8-2.7 12.7 0 23.2 1.7 31.7 5 8.4 3.3 15.1 8 20 14.1s8.4 13.3 10.5 21.6 3.1 17.6 3.1 27.8v84.3h-42.3v-79.2c0-13.6-1.8-23.3-5.4-28.9-3.6-5.7-10.3-8.5-20.1-8.5-3 0-6.3.1-9.7.4-3.4.3-6.4.6-9.1 1v115.3h-42.3V545.4z"/>
    </g>
    <g class="st6">
      <linearGradient id="SVGID_5_" gradientUnits="userSpaceOnUse" x1="43.3153" y1="656.8536" x2="431.3857" y2="520.1909">
        <stop offset="0" stop-color="#6449de"/>
        <stop offset=".35" stop-color="#854cd9"/>
        <stop offset=".75" stop-color="#aa48d4"/>
        <stop offset="1" stop-color="#bd5afd"/>
      </linearGradient>
      <path d="M236.3 584.9c-6.1 23.2-12.6 46.2-19.4 69-6.8 22.9-14.1 45.9-21.7 69h-53c-5.5-12.8-11.5-28-17.9-45.7-6.4-17.7-13.1-36.9-19.9-57.8-6.9-20.9-13.9-43-21.1-66.3-7.2-23.3-14.1-46.8-20.9-70.6h71.8c2.4 11 5.1 22.9 8 35.9 2.9 13 6 26.3 9.2 40 3.2 13.7 6.6 27.5 10.1 41.4 3.5 13.9 7.1 27.2 10.8 40 4-13.4 7.8-27.1 11.6-41.1s7.4-27.8 11-41.3c3.5-13.6 6.8-26.7 10-39.3 3.2-12.6 6-24.5 8.5-35.4h49.4c2.4 11 5.2 22.8 8.2 35.4 3.1 12.6 6.2 25.7 9.6 39.3 3.4 13.6 6.8 27.3 10.5 41.3 3.7 14 7.5 27.7 11.4 41.1 3.7-12.8 7.4-26.1 11-40 3.7-13.9 7.1-27.6 10.3-41.4 3.2-13.7 6.3-27 9.2-40 2.9-12.9 5.6-24.9 8-35.9h71c-6.7 23.8-13.7 47.3-20.9 70.6-7.2 23.3-14.2 45.4-21.1 66.3-6.9 20.9-13.6 40.1-20.2 57.8-6.6 17.7-12.6 32.9-18.1 45.7h-53c-7.6-23.1-15.1-46.2-22.4-69-7.2-22.9-13.9-45.9-20-69z" fill="url(#SVGID_5_)"/>
      <g>
        <linearGradient id="SVGID_6_" gradientUnits="userSpaceOnUse" x1="20.6423" y1="592.4706" x2="408.7127" y2="455.808">
          <stop offset="0" stop-color="#6449de"/>
          <stop offset=".35" stop-color="#854cd9"/>
          <stop offset=".75" stop-color="#aa48d4"/>
          <stop offset="1" stop-color="#bd5afd"/>
        </linearGradient>
        <path fill="url(#SVGID_6_)" d="M15.9 560.9h97v32.3h-97z"/>
        <linearGradient id="SVGID_7_" gradientUnits="userSpaceOnUse" x1="36.7003" y1="638.0695" x2="424.7708" y2="501.4068">
          <stop offset="0" stop-color="#6449de"/>
          <stop offset=".35" stop-color="#854cd9"/>
          <stop offset=".75" stop-color="#aa48d4"/>
          <stop offset="1" stop-color="#bd5afd"/>
        </linearGradient>
        <path fill="url(#SVGID_7_)" d="M15.9 612.2h97v32.3h-97z"/>
        <linearGradient id="SVGID_8_" gradientUnits="userSpaceOnUse" x1="58.7779" y1="700.7615" x2="446.8483" y2="564.0988">
          <stop offset="0" stop-color="#6449de"/>
          <stop offset=".35" stop-color="#854cd9"/>
          <stop offset=".75" stop-color="#aa48d4"/>
          <stop offset="1" stop-color="#bd5afd"/>
        </linearGradient>
        <path fill="url(#SVGID_8_)" d="M361.5 560.9h97v32.3h-97z"/>
        <linearGradient id="SVGID_9_" gradientUnits="userSpaceOnUse" x1="74.836" y1="746.3604" x2="462.9064" y2="609.6977">
          <stop offset="0" stop-color="#6449de"/>
          <stop offset=".35" stop-color="#854cd9"/>
          <stop offset=".75" stop-color="#aa48d4"/>
          <stop offset="1" stop-color="#bd5afd"/>
        </linearGradient>
        <path fill="url(#SVGID_9_)" d="M361.5 612.2h97v32.3h-97z"/>
      </g>
    </g>
  </g>
  <g id="_x34_" class="st4">
    <path class="st5" d="M0 0h1866v1200H0z"/>
    <g class="st6">
      <path class="st1" d="M740.6 595.9c-3.5 13.5-7.3 26.8-11.3 40.1-4 13.3-8.2 26.6-12.6 40.1h-30.8c-3.2-7.4-6.7-16.3-10.4-26.5-3.7-10.3-7.6-21.5-11.6-33.6-4-12.1-8.1-25-12.2-38.5-4.2-13.5-8.2-27.2-12.1-41h41.7c1.4 6.4 3 13.3 4.7 20.8 1.7 7.5 3.5 15.3 5.3 23.2 1.9 8 3.8 16 5.9 24 2 8.1 4.1 15.8 6.3 23.2 2.3-7.8 4.5-15.8 6.8-23.9 2.2-8.1 4.3-16.1 6.4-24 2-7.9 4-15.5 5.8-22.8s3.5-14.2 4.9-20.6H756c1.4 6.4 3 13.2 4.8 20.6 1.8 7.3 3.6 15 5.6 22.8 1.9 7.9 4 15.9 6.1 24 2.1 8.1 4.3 16.1 6.6 23.9 2.1-7.4 4.3-15.2 6.4-23.2 2.1-8 4.2-16.1 6-24 1.9-8 3.6-15.7 5.3-23.2 1.7-7.5 3.2-14.5 4.7-20.8h41.1c-3.9 13.8-7.9 27.5-12.1 41-4.2 13.5-8.3 26.4-12.2 38.5-4 12.1-7.9 23.3-11.7 33.6-3.8 10.3-7.3 19.1-10.5 26.5h-30.8c-4.4-13.4-8.8-26.8-13-40.1-4.2-13.2-8.1-26.6-11.7-40.1zM863.7 676.1V476.5l39.5-6.4V537c2.7-.9 6.1-1.7 10.2-2.5 4.2-.8 8.2-1.2 12.1-1.2 11.3 0 20.7 1.6 28.3 4.6 7.5 3.1 13.5 7.5 18 13.1 4.5 5.7 7.7 12.4 9.6 20.2 1.9 7.8 2.8 16.5 2.8 26V676h-39.5v-74c0-12.7-1.6-21.8-4.9-27.1-3.3-5.3-9.3-8-18.2-8-3.5 0-6.9.3-10 .9-3.1.6-5.9 1.3-8.4 2V676h-39.5zM1063.3 496.1c0 7.3-2.3 13-7 17.1-4.7 4.2-10.2 6.2-16.6 6.2s-11.9-2.1-16.6-6.2c-4.7-4.2-7-9.9-7-17.1s2.3-13 7-17.1 10.2-6.2 16.6-6.2 11.9 2.1 16.6 6.2c4.6 4.2 7 9.9 7 17.1zm-3.7 180H1020V536.5h39.5v139.6zM1095.4 501.7l39.6-6.4v41.1h47.5v32.9H1135v49.1c0 8.3 1.5 15 4.4 19.9 2.9 5 8.8 7.4 17.7 7.4 4.2 0 8.6-.4 13.1-1.2 4.5-.8 8.6-1.9 12.3-3.3l5.6 30.8c-4.8 1.9-10.1 3.6-15.9 5-5.8 1.4-13 2.1-21.5 2.1-10.8 0-19.7-1.5-26.8-4.4-7.1-2.9-12.7-7-17-12.2s-7.2-11.6-8.9-19-2.5-15.7-2.5-24.7V501.7zM1202.6 607.4c0-12.4 1.9-23.2 5.7-32.5 3.8-9.3 8.8-17 15-23.2 6.2-6.2 13.3-10.9 21.4-14.1 8-3.2 16.3-4.8 24.8-4.8 19.8 0 35.5 6.1 47 18.2s17.3 30 17.3 53.5c0 2.3-.1 4.8-.3 7.6-.2 2.7-.3 5.2-.5 7.3h-89.7c.9 8.1 4.7 14.6 11.4 19.4 6.7 4.8 15.8 7.2 27.1 7.2 7.3 0 14.4-.7 21.4-2 7-1.3 12.7-3 17.1-4.9l5.3 32.1c-2.1 1.1-5 2.1-8.5 3.2s-7.5 2-11.8 2.8c-4.3.8-9 1.5-13.9 2s-9.9.8-14.9.8c-12.6 0-23.5-1.9-32.8-5.6-9.3-3.7-17-8.8-23.1-15.3-6.1-6.5-10.6-14.1-13.5-23-3-8.9-4.5-18.5-4.5-28.7zm92.9-15.2c-.2-3.4-.7-6.6-1.7-9.8-1-3.2-2.5-6-4.5-8.5s-4.6-4.5-7.7-6.1c-3.1-1.6-7-2.4-11.6-2.4-4.4 0-8.2.8-11.4 2.3-3.2 1.5-5.8 3.5-8 6-2.1 2.5-3.8 5.4-4.9 8.6-1.2 3.3-2 6.6-2.5 10h52.3zM1355.1 606.3c0-10.1 1.6-19.6 4.9-28.5 3.3-8.9 8-16.7 14.2-23.4 6.2-6.6 13.7-11.9 22.6-15.8 8.8-3.9 18.9-5.8 30.3-5.8 7.4 0 14.2.7 20.4 2 6.2 1.3 12.2 3.2 18 5.7l-8.2 31.6c-3.7-1.4-7.8-2.7-12.2-3.7-4.4-1.1-9.4-1.6-14.9-1.6-11.7 0-20.4 3.6-26.1 10.9-5.8 7.3-8.6 16.8-8.6 28.7 0 12.6 2.7 22.3 8.1 29.2 5.4 6.9 14.8 10.4 28.3 10.4 4.8 0 9.9-.4 15.4-1.3s10.5-2.3 15.1-4.2l5.6 32.4c-4.6 1.9-10.3 3.6-17.3 5-6.9 1.4-14.5 2.1-22.8 2.1-12.7 0-23.7-1.9-32.9-5.7-9.2-3.8-16.8-9-22.7-15.5-5.9-6.6-10.3-14.3-13-23.2-2.9-9.2-4.2-18.9-4.2-29.3zM1618.4 606c0 11-1.6 21-4.8 30.1-3.2 9.1-7.8 16.9-13.8 23.4-6 6.5-13.2 11.5-21.6 15-8.4 3.5-17.8 5.3-28.3 5.3-10.3 0-19.6-1.8-28-5.3-8.4-3.5-15.6-8.5-21.6-15-6-6.5-10.7-14.2-14.1-23.4-3.4-9.1-5-19.2-5-30.1 0-11 1.7-21 5.2-30s8.2-16.7 14.3-23.1c6.1-6.4 13.4-11.3 21.8-14.9 8.4-3.5 17.6-5.3 27.5-5.3 10.1 0 19.3 1.8 27.7 5.3 8.4 3.5 15.6 8.5 21.6 14.9 6 6.4 10.7 14.1 14.1 23.1 3.3 9.1 5 19.1 5 30zm-40.3 0c0-12.2-2.4-21.8-7.3-28.8s-11.8-10.5-20.8-10.5-16 3.5-21 10.5-7.4 16.6-7.4 28.8 2.5 21.9 7.4 29.1 11.9 10.8 21 10.8c9 0 16-3.6 20.8-10.8s7.3-16.9 7.3-29.1zM1687.2 496.1c0 7.3-2.3 13-7 17.1-4.7 4.2-10.2 6.2-16.6 6.2-6.4 0-11.9-2.1-16.6-6.2-4.7-4.2-7-9.9-7-17.1s2.3-13 7-17.1c4.7-4.2 10.2-6.2 16.6-6.2 6.4 0 11.9 2.1 16.6 6.2 4.7 4.2 7 9.9 7 17.1zm-3.7 180H1644V536.5h39.5v139.6zM1712.8 541.3c6.7-1.9 15.4-3.8 26-5.4 10.6-1.7 21.8-2.5 33.4-2.5 11.9 0 21.7 1.6 29.6 4.6 7.9 3.1 14.1 7.5 18.7 13.1 4.6 5.7 7.9 12.4 9.8 20.2 1.9 7.8 2.9 16.5 2.9 26v78.8h-39.6V602c0-12.7-1.7-21.8-5-27.1-3.4-5.3-9.6-8-18.8-8-2.8 0-5.8.1-9 .4-3.2.3-6 .6-8.5.9V676h-39.5V541.3z"/>
      <g>
        <linearGradient id="SVGID_10_" gradientUnits="userSpaceOnUse" x1="194.9885" y1="822.8104" x2="526.7411" y2="464.0861">
          <stop offset="0" stop-color="#6449de"/>
          <stop offset=".35" stop-color="#854cd9"/>
          <stop offset=".75" stop-color="#aa48d4"/>
          <stop offset="1" stop-color="#bd5afd"/>
        </linearGradient>
        <path d="M382.4 559.8v30.3H466c-.7-8.5-2-22.2-3.9-30.3h-79.7z" fill="url(#SVGID_10_)"/>
        <linearGradient id="SVGID_11_" gradientUnits="userSpaceOnUse" x1="214.6144" y1="840.9606" x2="546.3669" y2="482.2363">
          <stop offset="0" stop-color="#6449de"/>
          <stop offset=".35" stop-color="#854cd9"/>
          <stop offset=".75" stop-color="#aa48d4"/>
          <stop offset="1" stop-color="#bd5afd"/>
        </linearGradient>
        <path d="M466 609.9h-99.6v30.3h95.7c1.9-8.1 3.2-21.8 3.9-30.3z" fill="url(#SVGID_11_)"/>
        <linearGradient id="SVGID_12_" gradientUnits="userSpaceOnUse" x1="75.7493" y1="712.5366" x2="407.5019" y2="353.8122">
          <stop offset="0" stop-color="#6449de"/>
          <stop offset=".35" stop-color="#854cd9"/>
          <stop offset=".75" stop-color="#aa48d4"/>
          <stop offset="1" stop-color="#bd5afd"/>
        </linearGradient>
        <path d="M110.8 640.2h95.7v-30.3h-99.6c.7 8.5 2 22.2 3.9 30.3z" fill="url(#SVGID_12_)"/>
        <linearGradient id="SVGID_13_" gradientUnits="userSpaceOnUse" x1="47.5448" y1="686.4528" x2="379.2974" y2="327.7284">
          <stop offset="0" stop-color="#6449de"/>
          <stop offset=".35" stop-color="#854cd9"/>
          <stop offset=".75" stop-color="#aa48d4"/>
          <stop offset="1" stop-color="#bd5afd"/>
        </linearGradient>
        <path d="M110.8 559.8c-1.9 8.1-3.2 21.8-3.9 30.3h83.6v-30.3h-79.7z" fill="url(#SVGID_13_)"/>
        <g>
          <linearGradient id="SVGID_14_" gradientUnits="userSpaceOnUse" x1="121.256" y1="754.6217" x2="453.0086" y2="395.8974">
            <stop offset="0" stop-color="#6449de"/>
            <stop offset=".35" stop-color="#854cd9"/>
            <stop offset=".75" stop-color="#aa48d4"/>
            <stop offset="1" stop-color="#bd5afd"/>
          </linearGradient>
          <path d="M285.8 595.7c-4.7 17.9-9.7 35.6-15 53.2-5.3 17.6-10.9 35.4-16.8 53.2h-40.9c-4.3-9.9-8.8-21.6-13.8-35.3-5-13.6-10.1-28.5-15.4-44.6-5.3-16.1-10.7-33.1-16.3-51.1-5.6-18-10.9-36.1-16.1-54.5H207c1.9 8.5 4 17.7 6.2 27.7 2.3 10 4.6 20.3 7.1 30.9 2.5 10.6 5.1 21.2 7.8 31.9s5.5 21 8.4 30.9c3.1-10.3 6-20.9 9-31.7 2.9-10.8 5.7-21.4 8.5-31.9 2.7-10.5 5.3-20.6 7.7-30.3 2.5-9.8 4.7-18.9 6.5-27.3h38.1c1.9 8.5 4 17.6 6.3 27.3 2.4 9.8 4.8 19.9 7.4 30.3 2.6 10.5 5.3 21.1 8.1 31.9 2.8 10.8 5.8 21.4 8.8 31.7 2.8-9.9 5.7-20.1 8.5-30.9 2.8-10.7 5.5-21.3 8-31.9 2.5-10.6 4.8-20.9 7.1-30.9s4.3-19.2 6.2-27.7h54.7c-5.2 18.3-10.5 36.5-16.1 54.5-5.5 18-11 35-16.3 51.1-5.3 16.1-10.5 31-15.6 44.6-5.1 13.6-9.7 25.4-14 35.3h-40.9c-5.9-17.9-11.6-35.6-17.3-53.2-5.6-17.6-10.8-35.3-15.4-53.2z" fill="url(#SVGID_14_)"/>
        </g>
        <linearGradient id="SVGID_15_" gradientUnits="userSpaceOnUse" x1="133.2245" y1="765.6902" x2="464.9771" y2="406.9659">
          <stop offset="0" stop-color="#6449de"/>
          <stop offset=".35" stop-color="#854cd9"/>
          <stop offset=".75" stop-color="#aa48d4"/>
          <stop offset="1" stop-color="#bd5afd"/>
        </linearGradient>
        <path d="M286.5 346.2C146.3 346.2 32.6 459.8 32.6 600c0 140.2 113.6 253.8 253.8 253.8 140.2 0 253.8-113.6 253.8-253.8.1-140.2-113.6-253.8-253.7-253.8zm0 467.3C168.6 813.5 73 717.9 73 600s95.6-213.5 213.5-213.5S500 482.1 500 600s-95.6 213.5-213.5 213.5z" fill="url(#SVGID_15_)"/>
      </g>
    </g>
  </g>
  <g id="_x35_" class="st4">
    <path class="st5" d="M0 0h1866v1200H0z"/>
    <g class="st6">
      <path class="st1" d="M740.6 595.9c-3.5 13.5-7.3 26.8-11.3 40.1-4 13.3-8.2 26.6-12.6 40.1h-30.8c-3.2-7.4-6.7-16.3-10.4-26.5-3.7-10.3-7.6-21.5-11.6-33.6-4-12.1-8.1-25-12.2-38.5-4.2-13.5-8.2-27.2-12.1-41h41.7c1.4 6.4 3 13.3 4.7 20.8 1.7 7.5 3.5 15.3 5.3 23.2 1.9 8 3.8 16 5.9 24 2 8.1 4.1 15.8 6.3 23.2 2.3-7.8 4.5-15.8 6.8-23.9 2.2-8.1 4.3-16.1 6.4-24 2-7.9 4-15.5 5.8-22.8s3.5-14.2 4.9-20.6H756c1.4 6.4 3 13.2 4.8 20.6 1.8 7.3 3.6 15 5.6 22.8 1.9 7.9 4 15.9 6.1 24 2.1 8.1 4.3 16.1 6.6 23.9 2.1-7.4 4.3-15.2 6.4-23.2 2.1-8 4.2-16.1 6-24 1.9-8 3.6-15.7 5.3-23.2 1.7-7.5 3.2-14.5 4.7-20.8h41.1c-3.9 13.8-7.9 27.5-12.1 41-4.2 13.5-8.3 26.4-12.2 38.5-4 12.1-7.9 23.3-11.7 33.6-3.8 10.3-7.3 19.1-10.5 26.5h-30.8c-4.4-13.4-8.8-26.8-13-40.1-4.2-13.2-8.1-26.6-11.7-40.1zM863.7 676.1V476.5l39.5-6.4V537c2.7-.9 6.1-1.7 10.2-2.5 4.2-.8 8.2-1.2 12.1-1.2 11.3 0 20.7 1.6 28.3 4.6 7.5 3.1 13.5 7.5 18 13.1 4.5 5.7 7.7 12.4 9.6 20.2 1.9 7.8 2.8 16.5 2.8 26V676h-39.5v-74c0-12.7-1.6-21.8-4.9-27.1-3.3-5.3-9.3-8-18.2-8-3.5 0-6.9.3-10 .9-3.1.6-5.9 1.3-8.4 2V676h-39.5zM1063.3 496.1c0 7.3-2.3 13-7 17.1-4.7 4.2-10.2 6.2-16.6 6.2s-11.9-2.1-16.6-6.2c-4.7-4.2-7-9.9-7-17.1s2.3-13 7-17.1 10.2-6.2 16.6-6.2 11.9 2.1 16.6 6.2c4.6 4.2 7 9.9 7 17.1zm-3.7 180H1020V536.5h39.5v139.6zM1095.4 501.7l39.6-6.4v41.1h47.5v32.9H1135v49.1c0 8.3 1.5 15 4.4 19.9 2.9 5 8.8 7.4 17.7 7.4 4.2 0 8.6-.4 13.1-1.2 4.5-.8 8.6-1.9 12.3-3.3l5.6 30.8c-4.8 1.9-10.1 3.6-15.9 5-5.8 1.4-13 2.1-21.5 2.1-10.8 0-19.7-1.5-26.8-4.4-7.1-2.9-12.7-7-17-12.2s-7.2-11.6-8.9-19-2.5-15.7-2.5-24.7V501.7zM1202.6 607.4c0-12.4 1.9-23.2 5.7-32.5 3.8-9.3 8.8-17 15-23.2 6.2-6.2 13.3-10.9 21.4-14.1 8-3.2 16.3-4.8 24.8-4.8 19.8 0 35.5 6.1 47 18.2s17.3 30 17.3 53.5c0 2.3-.1 4.8-.3 7.6-.2 2.7-.3 5.2-.5 7.3h-89.7c.9 8.1 4.7 14.6 11.4 19.4 6.7 4.8 15.8 7.2 27.1 7.2 7.3 0 14.4-.7 21.4-2 7-1.3 12.7-3 17.1-4.9l5.3 32.1c-2.1 1.1-5 2.1-8.5 3.2s-7.5 2-11.8 2.8c-4.3.8-9 1.5-13.9 2s-9.9.8-14.9.8c-12.6 0-23.5-1.9-32.8-5.6-9.3-3.7-17-8.8-23.1-15.3-6.1-6.5-10.6-14.1-13.5-23-3-8.9-4.5-18.5-4.5-28.7zm92.9-15.2c-.2-3.4-.7-6.6-1.7-9.8-1-3.2-2.5-6-4.5-8.5s-4.6-4.5-7.7-6.1c-3.1-1.6-7-2.4-11.6-2.4-4.4 0-8.2.8-11.4 2.3-3.2 1.5-5.8 3.5-8 6-2.1 2.5-3.8 5.4-4.9 8.6-1.2 3.3-2 6.6-2.5 10h52.3zM1355.1 606.3c0-10.1 1.6-19.6 4.9-28.5 3.3-8.9 8-16.7 14.2-23.4 6.2-6.6 13.7-11.9 22.6-15.8 8.8-3.9 18.9-5.8 30.3-5.8 7.4 0 14.2.7 20.4 2 6.2 1.3 12.2 3.2 18 5.7l-8.2 31.6c-3.7-1.4-7.8-2.7-12.2-3.7-4.4-1.1-9.4-1.6-14.9-1.6-11.7 0-20.4 3.6-26.1 10.9-5.8 7.3-8.6 16.8-8.6 28.7 0 12.6 2.7 22.3 8.1 29.2 5.4 6.9 14.8 10.4 28.3 10.4 4.8 0 9.9-.4 15.4-1.3s10.5-2.3 15.1-4.2l5.6 32.4c-4.6 1.9-10.3 3.6-17.3 5-6.9 1.4-14.5 2.1-22.8 2.1-12.7 0-23.7-1.9-32.9-5.7-9.2-3.8-16.8-9-22.7-15.5-5.9-6.6-10.3-14.3-13-23.2-2.9-9.2-4.2-18.9-4.2-29.3zM1618.4 606c0 11-1.6 21-4.8 30.1-3.2 9.1-7.8 16.9-13.8 23.4-6 6.5-13.2 11.5-21.6 15-8.4 3.5-17.8 5.3-28.3 5.3-10.3 0-19.6-1.8-28-5.3-8.4-3.5-15.6-8.5-21.6-15-6-6.5-10.7-14.2-14.1-23.4-3.4-9.1-5-19.2-5-30.1 0-11 1.7-21 5.2-30s8.2-16.7 14.3-23.1c6.1-6.4 13.4-11.3 21.8-14.9 8.4-3.5 17.6-5.3 27.5-5.3 10.1 0 19.3 1.8 27.7 5.3 8.4 3.5 15.6 8.5 21.6 14.9 6 6.4 10.7 14.1 14.1 23.1 3.3 9.1 5 19.1 5 30zm-40.3 0c0-12.2-2.4-21.8-7.3-28.8s-11.8-10.5-20.8-10.5-16 3.5-21 10.5-7.4 16.6-7.4 28.8 2.5 21.9 7.4 29.1 11.9 10.8 21 10.8c9 0 16-3.6 20.8-10.8s7.3-16.9 7.3-29.1zM1687.2 496.1c0 7.3-2.3 13-7 17.1-4.7 4.2-10.2 6.2-16.6 6.2-6.4 0-11.9-2.1-16.6-6.2-4.7-4.2-7-9.9-7-17.1s2.3-13 7-17.1c4.7-4.2 10.2-6.2 16.6-6.2 6.4 0 11.9 2.1 16.6 6.2 4.7 4.2 7 9.9 7 17.1zm-3.7 180H1644V536.5h39.5v139.6zM1712.8 541.3c6.7-1.9 15.4-3.8 26-5.4 10.6-1.7 21.8-2.5 33.4-2.5 11.9 0 21.7 1.6 29.6 4.6 7.9 3.1 14.1 7.5 18.7 13.1 4.6 5.7 7.9 12.4 9.8 20.2 1.9 7.8 2.9 16.5 2.9 26v78.8h-39.6V602c0-12.7-1.7-21.8-5-27.1-3.4-5.3-9.6-8-18.8-8-2.8 0-5.8.1-9 .4-3.2.3-6 .6-8.5.9V676h-39.5V541.3z"/>
    </g>
    <g class="st6">
      <linearGradient id="SVGID_16_" gradientUnits="userSpaceOnUse" x1="-64.6741" y1="727.3815" x2="687.2429" y2="269.0212">
        <stop offset="0" stop-color="#6449de"/>
        <stop offset=".35" stop-color="#854cd9"/>
        <stop offset=".75" stop-color="#aa48d4"/>
        <stop offset="1" stop-color="#bd5afd"/>
      </linearGradient>
      <path d="M173.8 590.4h-66.3c-.2 3.3-.3 6.6-.3 9.9 0 3.3.1 6.6.3 9.9h72.6c-2.1-6.4-4.2-13-6.3-19.8z" fill="url(#SVGID_16_)"/>
      <linearGradient id="SVGID_17_" gradientUnits="userSpaceOnUse" x1="-57.3839" y1="739.3408" x2="694.5331" y2="280.9804">
        <stop offset="0" stop-color="#6449de"/>
        <stop offset=".35" stop-color="#854cd9"/>
        <stop offset=".75" stop-color="#aa48d4"/>
        <stop offset="1" stop-color="#bd5afd"/>
      </linearGradient>
      <path d="M151.7 516.9h55.4c1.9 8.5 4 17.7 6.2 27.7 2.3 10 4.6 20.3 7.1 30.9 2.5 10.6 5.1 21.2 7.8 32 2.7 10.7 5.5 21 8.4 30.9 3.1-10.4 6-20.9 9-31.8 2.9-10.8 5.8-21.5 8.5-31.9 2.7-10.5 5.3-20.6 7.8-30.4 2.5-9.8 4.7-18.9 6.5-27.4h38.1c1.9 8.5 4 17.6 6.3 27.4 2.4 9.8 4.8 19.9 7.4 30.4 2.6 10.5 5.3 21.1 8.1 31.9 2.8 10.8 5.8 21.4 8.8 31.8 2.8-9.9 5.7-20.2 8.5-30.9s5.5-21.4 8-32c2.5-10.6 4.8-20.9 7.1-30.9s4.3-19.2 6.2-27.7h54.7c-4.1 14.5-8.3 28.9-12.7 43.1h52.7c-18.3-79.8-89.7-139.4-175-139.4-85.4 0-156.8 59.6-175 139.4h52.7c-4.2-14.2-8.4-28.6-12.6-43.1z" fill="url(#SVGID_17_)"/>
      <linearGradient id="SVGID_18_" gradientUnits="userSpaceOnUse" x1="6.0571" y1="843.4125" x2="757.9741" y2="385.0522">
        <stop offset="0" stop-color="#6449de"/>
        <stop offset=".35" stop-color="#854cd9"/>
        <stop offset=".75" stop-color="#aa48d4"/>
        <stop offset="1" stop-color="#bd5afd"/>
      </linearGradient>
      <path d="M373.8 667.3c-5.1 13.7-9.7 25.4-14 35.3h-41c-5.9-17.9-11.7-35.7-17.3-53.3-5.6-17.6-10.8-35.4-15.5-53.3-4.7 17.9-9.7 35.7-15 53.3-5.3 17.7-10.9 35.4-16.8 53.3h-40.9c-4.3-9.9-8.8-21.7-13.8-35.3-3.1-8.4-6.2-17.4-9.4-26.7h-78.4C130 720.4 201.4 780 286.7 780c85.4 0 156.8-59.6 175-139.4h-78.5c-3.1 9.3-6.2 18.3-9.4 26.7z" fill="url(#SVGID_18_)"/>
      <linearGradient id="SVGID_19_" gradientUnits="userSpaceOnUse" x1="13.6737" y1="855.9072" x2="765.5907" y2="397.5468">
        <stop offset="0" stop-color="#6449de"/>
        <stop offset=".35" stop-color="#854cd9"/>
        <stop offset=".75" stop-color="#aa48d4"/>
        <stop offset="1" stop-color="#bd5afd"/>
      </linearGradient>
      <path d="M466.1 590.4h-66.3c-2.1 6.7-4.2 13.3-6.3 19.8h72.6c.2-3.3.3-6.6.3-9.9 0-3.3-.1-6.6-.3-9.9z" fill="url(#SVGID_19_)"/>
    </g>
    <linearGradient id="SVGID_20_" gradientUnits="userSpaceOnUse" x1="-25.9268" y1="790.9446" x2="725.9902" y2="332.5842">
      <stop offset="0" stop-color="#6449de"/>
      <stop offset=".35" stop-color="#854cd9"/>
      <stop offset=".75" stop-color="#aa48d4"/>
      <stop offset="1" stop-color="#bd5afd"/>
    </linearGradient>
    <path d="M286.8 346.2C146.4 346.2 32.6 460 32.6 600.3c0 140.4 113.8 254.1 254.1 254.1 140.4 0 254.1-113.8 254.1-254.1.1-140.3-113.7-254.1-254-254.1zm0 467.9C168.7 814.1 73 718.4 73 600.3c0-118.1 95.7-213.8 213.8-213.8 118.1 0 213.8 95.7 213.8 213.8 0 118.1-95.7 213.8-213.8 213.8z" fill="url(#SVGID_20_)"/>
  </g>
  <g id="_x36_" class="st4">
    <path class="st5" d="M0 0h1866v1200H0z"/>
    <g class="st6">
      <path class="st1" d="M767.7 687.7h-12.1l-39.1-87.5-38.9 87.5h-12.2l-53.7-145h35l28.6 84.9 34.8-84.9h12l36 85.5 30.8-85.5h32.7l-53.9 145zM933.3 685v-87.7c0-8.8-2.8-15.8-8.2-21.1s-12.7-8-21.5-8c-5.5 0-11 1.5-16.6 4.5-5.6 3-9.6 6.4-12 10.2V685h-33.8V489.6l33.8-8v70c8.6-7.8 20.4-11.7 35.5-11.7 17.8 0 31.6 4.9 41.5 14.8 9.8 9.9 14.8 24 14.8 42.5V685h-33.5zM1011.5 685V569.9h-18.2v-27.2h51.8V685h-33.6zm17.1-197.5c5.3 0 9.9 1.9 13.6 5.6 3.8 3.8 5.7 8.3 5.7 13.6 0 5.3-1.9 9.9-5.7 13.6-3.8 3.8-8.3 5.7-13.6 5.7-5.3 0-9.9-1.9-13.6-5.7-3.8-3.8-5.7-8.3-5.7-13.6 0-5.3 1.9-9.9 5.7-13.6 3.7-3.7 8.3-5.6 13.6-5.6zM1088.8 569.4h-16.5v-26.7h16.5v-29l33.2-12.2v41.2h39.1v26.7H1122v62.3c0 10.2 1.6 17.4 4.8 21.6 3.2 4.2 8.8 6.3 16.8 6.3s15.4-2.2 22.3-6.5v30.6c-7.7 2.7-18.7 4-33 4-14.2 0-25.1-4-32.7-12-7.6-8-11.4-19.4-11.4-34.2v-72.1zM1318.7 624H1217c.6 11.3 4.5 20.2 11.7 26.4 7.2 6.3 16.8 9.4 29 9.4 15.2 0 26.7-3.9 34.6-11.8l12.9 25.4c-11.7 9.5-29.2 14.2-52.4 14.2-21.7 0-38.9-6.4-51.5-19.1-12.6-12.7-18.9-30.5-18.9-53.2 0-22.4 6.9-40.6 20.8-54.5 13.9-13.9 30.5-20.9 49.9-20.9 20.6 0 37.2 6.2 49.7 18.5s18.7 28 18.7 47.1c0 4.1-.9 10.3-2.8 18.5zm-100.4-25h69.9c-2.3-20.8-13.8-31.2-34.6-31.2-19 0-30.7 10.4-35.3 31.2zM1459.8 554l-14.2 24.9c-7.8-7.3-18.3-11-31.4-11-12.6 0-22.5 4.2-29.8 12.6-7.3 8.4-11 20-11 34.8 0 29.9 14.2 44.8 42.7 44.8 12.3 0 23.2-4.1 32.6-12.2l12.2 26.2c-9.7 6-18.1 9.8-25.3 11.4-7.2 1.6-15.7 2.4-25.6 2.4-22 0-39.3-6.4-52-19.2-12.7-12.8-19.1-30.6-19.1-53.4 0-22.4 7-40.5 20.9-54.4s32.9-20.7 56.9-20.7c16.4-.2 30.8 4.5 43.1 13.8zM1478.1 613.5c0-21.7 6.3-39.4 18.8-53 12.5-13.6 29.1-20.5 49.6-20.5 21.6 0 38.4 6.6 50.4 19.7s17.9 31.1 17.9 53.8c0 22.7-6.1 40.7-18.3 54.1-12.2 13.4-28.9 20.1-50 20.1-21.6 0-38.4-6.8-50.4-20.3s-18-31.5-18-53.9zm34.6 0c0 31.4 11.3 47.1 33.9 47.1 10.4 0 18.6-4.1 24.7-12.2 6.1-8.1 9.1-19.8 9.1-34.8 0-30.9-11.3-46.4-33.8-46.4-10.4 0-18.6 4.1-24.7 12.2-6.2 8.1-9.2 19.5-9.2 34.1zM1650.4 685V569.9h-18.2v-27.2h51.8V685h-33.6zm17.1-197.5c5.3 0 9.9 1.9 13.6 5.6 3.8 3.8 5.7 8.3 5.7 13.6 0 5.3-1.9 9.9-5.7 13.6-3.8 3.8-8.3 5.7-13.6 5.7-5.3 0-9.9-1.9-13.6-5.7-3.8-3.8-5.7-8.3-5.7-13.6 0-5.3 1.9-9.9 5.7-13.6 3.7-3.7 8.3-5.6 13.6-5.6zM1814.2 685v-82.3c0-12.1-2.3-21-7-26.6-4.7-5.6-12.3-8.4-22.8-8.4-4.9 0-10.1 1.4-15.6 4.1-5.5 2.8-9.9 6.2-13 10.2v103h-33.2V542.7h23.9l6.1 13.3c9-10.6 22.4-16 40-16 16.9 0 30.3 5.1 40.1 15.2s14.7 24.3 14.7 42.5V685h-33.2z"/>
      <linearGradient id="SVGID_21_" gradientUnits="userSpaceOnUse" x1="198.2027" y1="628.4566" x2="273.5446" y2="480.6703">
        <stop offset="0" stop-color="#854cd9"/>
        <stop offset=".0793" stop-color="#884cd9"/>
        <stop offset="1" stop-color="#aa48d4"/>
      </linearGradient>
      <path fill="url(#SVGID_21_)" d="M208.8 459.5l-88.3 281h96.1l88.3-281z"/>
      <linearGradient id="SVGID_22_" gradientUnits="userSpaceOnUse" x1="65.6141" y1="486.9565" x2="123.5694" y2="628.9472">
        <stop offset="0" stop-color="#6449de"/>
        <stop offset="1" stop-color="#854cd9"/>
      </linearGradient>
      <path d="M158 590.7l-33.3-101.3c-5.9-17.8-22.5-29.9-41.3-29.9H18.5l92.3 280.9h.1L158 590.7z" fill="url(#SVGID_22_)"/>
      <linearGradient id="SVGID_23_" gradientUnits="userSpaceOnUse" x1="413.3197" y1="602.8749" x2="579.9415" y2="317.4446">
        <stop offset="0" stop-color="#aa48d4"/>
        <stop offset="1" stop-color="#652d90"/>
      </linearGradient>
      <path d="M398.4 489.3l-78.9 251.2h96.1l88.3-280.9H439c-18.6-.1-35.1 12-40.6 29.7z" fill="url(#SVGID_23_)"/>
      <linearGradient id="SVGID_24_" gradientUnits="userSpaceOnUse" x1="286.3936" y1="565.4501" x2="342.9001" y2="642.241">
        <stop offset="0" stop-color="#aa48d4"/>
        <stop offset="1" stop-color="#bd5afd"/>
      </linearGradient>
      <path fill="url(#SVGID_24_)" d="M309.8 740.5l47.2-150-42.6-130.7-47.3 150.4 42.4 130.3h1z"/>
    </g>
  </g>
  <g id="_x37_" class="st4">
    <path class="st5" d="M0 0h1866v1200H0z"/>
    <g class="st6">
      <path class="st1" d="M587.2 548.1h38.2l28.9 93h.5l25.9-93h31.5l26.2 93h.5l28.6-93h37.7l-46.8 143.5h-35.5l-26.5-88.2h-.5l-26.5 88.2h-35.5l-46.7-143.5zM826.1 489.8h39.3v74.8c10.7-11 25.1-19.8 43-19.8 32.3 0 45.7 19.5 45.7 51.8v94.8h-39.3v-95.9c0-12.8-5.1-21.6-18.7-21.6-11.8 0-22.2 6.1-30.7 16.8v100.7h-39.3V489.8zM986.1 491.2h39.3v33.7h-39.3v-33.7zm0 59h39.3v141.3h-39.3V550.2zM1068.9 575.9h-22.7v-27.8h22.7v-35.8h39.3v35.8h39.3v27.8h-39.3v71.3c0 10.7 4 16 13.1 16 7.2 0 13.9-2.4 19.5-6.4l14.4 23.5c-11 8.5-26.2 14.4-41.9 14.4-29.9 0-44.4-14.7-44.4-46.8v-72zM1235.7 544.6c41.1 0 63.9 27 63.9 65.5 0 5.6-.5 13.1-1.3 17.4h-94.6c2.1 24.3 13.6 36.3 35.3 36.3 14.4 0 27.8-4.8 39.8-12.3l16.3 24.8c-17.6 12.3-37.7 18.7-59 18.7-42.2 0-72.1-28.1-72.1-76.1-.2-46 31.9-74.3 71.7-74.3zm-31.3 60.4h58c0-18.2-6.9-32.1-25.7-32.1-16 0-28.5 11.3-32.3 32.1zM1392.3 544.9c17.4 0 35 5.3 50.8 17.6l-19.8 25.4c-8.3-6.4-17.9-11.2-29.9-11.2-19 0-34.5 15-34.5 42.2 0 28.6 15.2 44.4 34.5 44.4 12.8 0 21.4-4.5 30.2-11.8l21.4 22.7c-15.8 13.9-32.3 20.6-52.6 20.6-41.7 0-72.9-28.1-72.9-75.9-.2-46 30.8-74 72.8-74zM1528.5 544.9c40.9 0 71.6 29.1 71.6 73.5 0 47.3-28.9 76.4-71.6 76.4-43.3 0-72.4-29.1-72.4-76.4 0-44.4 31-73.5 72.4-73.5zm0 120.5c20.3 0 32.1-18.4 32.1-46.8 0-26.5-12.8-44.1-32.1-44.1-19.8 0-32.9 17.6-32.9 44.1.1 28.4 11.8 46.8 32.9 46.8zM1627.1 491.2h39.3v33.7h-39.3v-33.7zm0 59h39.3v141.3h-39.3V550.2zM1699.3 548.1h36.9l1.9 16.6c10.4-11 25.7-20 43.6-20 32.1 0 45.7 19.8 45.7 52.1v94.8H1788v-95.9c0-12.8-5.3-21.6-18.7-21.6-12 0-22.4 6.1-31 16.8v100.7h-39V548.1z"/>
      <g>
        <linearGradient id="SVGID_25_" gradientUnits="userSpaceOnUse" x1="80.558" y1="632.3995" x2="442.6931" y2="549.7382">
          <stop offset="0" stop-color="#6449de"/>
          <stop offset=".35" stop-color="#854cd9"/>
          <stop offset="1" stop-color="#aa48d4"/>
        </linearGradient>
        <path d="M183.3 634.2c-2.6-.4-5.1-.5-7.6-.4-14.1.6-27.7-5.8-37.7-15.8l-7.9-7.9c-10.1-10.1-15-24-14.9-38.3v-.2c0-10.6-4.3-20.1-11.2-27.1-.5-.4-.9-.8-1.4-1.3-.4-.4-.8-.8-1.3-1.1-15-12.4-37.3-11.7-51.4 2.4-14.1 14.1-14.9 36.4-2.4 51.4.3.4.7.8 1.1 1.2.4.5.8 1 1.3 1.4 6.9 6.9 16.5 11.2 27.1 11.2h.2c14.9 0 29.3 5.9 39.9 16.4l8.4 8.4c9.6 9.6 13.9 22.9 13.7 36.5 0 2.4.1 4.9.6 7.4 2.7 15.8 15.6 28.5 31.5 31 26 4 48-18.1 43.9-44-2.7-15.9-15.7-28.8-31.9-31.2z" fill="url(#SVGID_25_)"/>
        <linearGradient id="SVGID_26_" gradientUnits="userSpaceOnUse" x1="85.5641" y1="654.3309" x2="447.6992" y2="571.6697">
          <stop offset="0" stop-color="#6449de"/>
          <stop offset=".35" stop-color="#854cd9"/>
          <stop offset="1" stop-color="#aa48d4"/>
        </linearGradient>
        <path d="M378.6 609.9c10.6 0 20.1-4.3 27.1-11.2.5-.5.9-1 1.3-1.4.4-.4.8-.8 1.1-1.2 12.4-15 11.6-37.3-2.4-51.4-14.1-14.1-36.3-14.9-51.4-2.4-.4.4-.8.8-1.3 1.1-.5.4-.9.8-1.4 1.3-6.9 6.9-11.2 16.5-11.2 27.1v.2c.1 14.3-4.8 28.2-14.9 38.3l-7.9 7.9c-10 10-23.6 16.4-37.8 15.8H277c-14.2.6-27.7-5.7-37.8-15.8l-7.9-7.9c-10.1-10.1-15-24-14.9-38.3v-.2c0-10.6-4.3-20.1-11.2-27.1-.5-.4-.9-.8-1.4-1.3-.4-.4-.8-.8-1.3-1.1-15-12.4-37.3-11.7-51.4 2.4-14.1 14.1-14.9 36.4-2.4 51.4.4.4.7.8 1.1 1.2.4.5.8 1 1.3 1.4 6.9 6.9 16.5 11.2 27.1 11.2h.2c14.9 0 29.3 5.9 39.9 16.4l8.4 8.4c8.6 8.6 13 20.2 13.6 32.3-2.6 21.3 12.2 39.6 32.1 42.6H272.7c1.3.2 2.5.3 3.8.4.7 0 1.3 0 1.9.1.6 0 1.3 0 1.9-.1 1.3-.1 2.5-.2 3.8-.4H284.4c19.9-3 34.7-21.4 32.1-42.6.6-12.1 5-23.7 13.6-32.3l8.4-8.4c10.6-10.6 24.9-16.5 39.9-16.4h.2z" fill="url(#SVGID_26_)"/>
        <linearGradient id="SVGID_27_" gradientUnits="userSpaceOnUse" x1="95.4997" y1="697.8582" x2="457.6347" y2="615.1968">
          <stop offset="0" stop-color="#6449de"/>
          <stop offset=".35" stop-color="#854cd9"/>
          <stop offset="1" stop-color="#aa48d4"/>
        </linearGradient>
        <path d="M506.1 544.5c-14.1-14.1-36.3-14.9-51.4-2.4-.4.4-.9.8-1.3 1.1-.5.4-.9.8-1.4 1.3-6.9 6.9-11.2 16.5-11.2 27.1v.2c.1 14.3-4.8 28.2-14.9 38.3L418 618c-10 10-23.6 16.4-37.8 15.8-2.5-.1-5 0-7.6.4-16.1 2.5-29.2 15.3-31.8 31.4-4.2 26 17.9 48.1 43.9 44 15.8-2.5 28.7-15.2 31.5-31 .4-2.5.6-5 .6-7.4-.2-13.6 4.1-26.9 13.7-36.5l8.4-8.4c10.6-10.6 24.9-16.5 39.9-16.4h.2c10.6 0 20.1-4.3 27.1-11.2.5-.5.9-1 1.3-1.4.4-.4.8-.8 1.1-1.2 12.4-15.2 11.6-37.5-2.4-51.6z" fill="url(#SVGID_27_)"/>
      </g>
    </g>
  </g>
  <g id="_x38__1_" class="st4">
    <path class="st5" d="M0 0h1866v1200H0z"/>
    <g class="st6">
      <path class="st1" d="M587.2 548.1h38.2l28.9 93h.5l25.9-93h31.5l26.2 93h.5l28.6-93h37.7l-46.8 143.5h-35.5l-26.5-88.2h-.5l-26.5 88.2h-35.5l-46.7-143.5zM826.1 489.8h39.3v74.8c10.7-11 25.1-19.8 43-19.8 32.3 0 45.7 19.5 45.7 51.8v94.8h-39.3v-95.9c0-12.8-5.1-21.6-18.7-21.6-11.8 0-22.2 6.1-30.7 16.8v100.7h-39.3V489.8zM986.1 491.2h39.3v33.7h-39.3v-33.7zm0 59h39.3v141.3h-39.3V550.2zM1068.9 575.9h-22.7v-27.8h22.7v-35.8h39.3v35.8h39.3v27.8h-39.3v71.3c0 10.7 4 16 13.1 16 7.2 0 13.9-2.4 19.5-6.4l14.4 23.5c-11 8.5-26.2 14.4-41.9 14.4-29.9 0-44.4-14.7-44.4-46.8v-72zM1235.7 544.6c41.1 0 63.9 27 63.9 65.5 0 5.6-.5 13.1-1.3 17.4h-94.6c2.1 24.3 13.6 36.3 35.3 36.3 14.4 0 27.8-4.8 39.8-12.3l16.3 24.8c-17.6 12.3-37.7 18.7-59 18.7-42.2 0-72.1-28.1-72.1-76.1-.2-46 31.9-74.3 71.7-74.3zm-31.3 60.4h58c0-18.2-6.9-32.1-25.7-32.1-16 0-28.5 11.3-32.3 32.1zM1392.3 544.9c17.4 0 35 5.3 50.8 17.6l-19.8 25.4c-8.3-6.4-17.9-11.2-29.9-11.2-19 0-34.5 15-34.5 42.2 0 28.6 15.2 44.4 34.5 44.4 12.8 0 21.4-4.5 30.2-11.8l21.4 22.7c-15.8 13.9-32.3 20.6-52.6 20.6-41.7 0-72.9-28.1-72.9-75.9-.2-46 30.8-74 72.8-74zM1528.5 544.9c40.9 0 71.6 29.1 71.6 73.5 0 47.3-28.9 76.4-71.6 76.4-43.3 0-72.4-29.1-72.4-76.4 0-44.4 31-73.5 72.4-73.5zm0 120.5c20.3 0 32.1-18.4 32.1-46.8 0-26.5-12.8-44.1-32.1-44.1-19.8 0-32.9 17.6-32.9 44.1.1 28.4 11.8 46.8 32.9 46.8zM1627.1 491.2h39.3v33.7h-39.3v-33.7zm0 59h39.3v141.3h-39.3V550.2zM1699.3 548.1h36.9l1.9 16.6c10.4-11 25.7-20 43.6-20 32.1 0 45.7 19.8 45.7 52.1v94.8H1788v-95.9c0-12.8-5.3-21.6-18.7-21.6-12 0-22.4 6.1-31 16.8v100.7h-39V548.1z"/>
    </g>
    <g class="st6">
      <linearGradient id="SVGID_28_" gradientUnits="userSpaceOnUse" x1="24.4421" y1="663.3892" x2="519.6734" y2="484.6819">
        <stop offset="0" stop-color="#6449de"/>
        <stop offset=".35" stop-color="#854cd9"/>
        <stop offset=".75" stop-color="#aa48d4"/>
        <stop offset="1" stop-color="#bd5afd"/>
      </linearGradient>
      <path d="M440.1 499.6c0-23.8 21.8-42.5 46.5-37.3 14.4 3 26 14.6 29 29 5.2 24.7-13.5 46.5-37.3 46.5-21.1 0-38.2-17.1-38.2-38.2" fill="url(#SVGID_28_)"/>
      <linearGradient id="SVGID_29_" gradientUnits="userSpaceOnUse" x1="65.6226" y1="776.8533" x2="560.8531" y2="598.1462">
        <stop offset="0" stop-color="#6449de"/>
        <stop offset=".35" stop-color="#854cd9"/>
        <stop offset=".75" stop-color="#aa48d4"/>
        <stop offset="1" stop-color="#bd5afd"/>
      </linearGradient>
      <path d="M239.3 700.4c0-23.8 21.8-42.6 46.5-37.3 14.4 3 25.9 14.6 29 29 5.2 24.7-13.5 46.5-37.3 46.5-21.1 0-38.2-17.1-38.2-38.2" fill="url(#SVGID_29_)"/>
      <linearGradient id="SVGID_30_" gradientUnits="userSpaceOnUse" x1="1.4638" y1="599.2307" x2="496.6944" y2="420.5236">
        <stop offset="0" stop-color="#6449de"/>
        <stop offset=".35" stop-color="#854cd9"/>
        <stop offset=".75" stop-color="#aa48d4"/>
        <stop offset="1" stop-color="#bd5afd"/>
      </linearGradient>
      <path d="M239.3 499.6c0-23.8 21.8-42.6 46.5-37.3 14.4 3 25.9 14.6 29 29 5.2 24.7-13.5 46.5-37.3 46.5-21.1 0-38.2-17.1-38.2-38.2" fill="url(#SVGID_30_)"/>
      <linearGradient id="SVGID_31_" gradientUnits="userSpaceOnUse" x1="-21.515" y1="535.0723" x2="473.7154" y2="356.3653">
        <stop offset="0" stop-color="#6449de"/>
        <stop offset=".35" stop-color="#854cd9"/>
        <stop offset=".75" stop-color="#aa48d4"/>
        <stop offset="1" stop-color="#bd5afd"/>
      </linearGradient>
      <path d="M38.5 499.6c0-23.8 21.8-42.6 46.5-37.3 14.4 3 26 14.6 29 29 5.2 24.7-13.5 46.5-37.3 46.5-21 0-38.2-17.1-38.2-38.2" fill="url(#SVGID_31_)"/>
      <linearGradient id="SVGID_32_" gradientUnits="userSpaceOnUse" x1="32.3926" y1="684.2922" x2="527.1966" y2="505.739">
        <stop offset="0" stop-color="#6449de"/>
        <stop offset=".35" stop-color="#854cd9"/>
        <stop offset=".75" stop-color="#aa48d4"/>
        <stop offset="1" stop-color="#bd5afd"/>
      </linearGradient>
      <path d="M215.3 693.9c-2.6-16.1-15.7-29-31.8-31.4-1.5-.2-3-.4-4.5-.4-15.8-.6-31-5.8-42.1-17l-5.1-5.1c-10.6-10.6-16.5-24.9-16.4-39.9v-.2c0-10.6-4.3-20.1-11.2-27.1-.4-.5-.9-.8-1.4-1.3-.4-.4-.8-.8-1.3-1.1-15-12.4-37.3-11.6-51.4 2.4-14.1 14.1-14.9 36.3-2.4 51.4.4.4.7.8 1.1 1.2.4.5.8 1 1.3 1.4C57 633.7 66.6 638 77.2 638h.2c14.9 0 29.3 5.9 39.9 16.4l1.8 1.8c12.6 12.6 18.8 30.1 20.3 47.8.1 1.3.3 2.7.6 4 2.9 15.3 15.6 27 30.9 29.7 26.1 4.6 48.6-17.6 44.4-43.8" fill="url(#SVGID_32_)"/>
      <linearGradient id="SVGID_33_" gradientUnits="userSpaceOnUse" x1="43.9221" y1="716.2419" x2="538.7257" y2="537.6889">
        <stop offset="0" stop-color="#6449de"/>
        <stop offset=".35" stop-color="#854cd9"/>
        <stop offset=".75" stop-color="#aa48d4"/>
        <stop offset="1" stop-color="#bd5afd"/>
      </linearGradient>
      <path d="M183.5 737.9c16.1-2.6 29.3-15.5 31.8-31.6v-.3c3-20.5 10.7-40.1 25.4-54.8 9.1-9.1 21.7-14 34.5-13.2.7 0 1.5.1 2.2.1 10.6 0 20.1-4.3 27.1-11.2.5-.4.8-.9 1.3-1.4.4-.4.8-.8 1.2-1.3 12.4-15 11.6-37.3-2.4-51.4-14.1-14.1-36.3-14.9-51.4-2.4-.4.3-.8.7-1.2 1.1-.5.4-1 .8-1.4 1.3-6.9 6.9-11.2 16.5-11.2 27.1v.2c.1 14.2-4.5 27.9-14.6 38l-3.6 3.6c-12.6 12.6-29.5 19-47.2 20.5-1.3.1-2.7.3-4.1.6-15.3 2.9-27.7 15.5-30.3 30.8-4.5 26.2 17.7 48.5 43.9 44.3" fill="url(#SVGID_33_)"/>
      <linearGradient id="SVGID_34_" gradientUnits="userSpaceOnUse" x1="244.6957" y1="716.2419" x2="739.4993" y2="537.6889">
        <stop offset="0" stop-color="#6449de"/>
        <stop offset=".35" stop-color="#854cd9"/>
        <stop offset=".75" stop-color="#aa48d4"/>
        <stop offset="1" stop-color="#bd5afd"/>
      </linearGradient>
      <path d="M384.2 737.9c16.1-2.6 29.3-15.5 31.8-31.6v-.3c3-20.5 10.7-40.1 25.4-54.8 9.1-9.1 24.1-13.2 36.8-13.2 10.6 0 20.1-4.3 27.1-11.2.5-.4.8-.9 1.3-1.4.4-.4.8-.8 1.2-1.3 12.4-15 11.6-37.3-2.4-51.4-14.1-14.1-36.3-14.9-51.4-2.4-.4.3-.8.7-1.2 1.1-.5.4-1 .8-1.4 1.3-6.9 6.9-11.2 16.5-11.2 27.1v.2c.1 14.2-4.5 27.9-14.6 38l-3.6 3.6c-12.6 12.6-29.5 19-47.2 20.5-1.3.1-2.7.3-4.1.6-15.3 2.9-27.7 15.5-30.3 30.8-4.5 26.3 17.7 48.6 43.8 44.4" fill="url(#SVGID_34_)"/>
    </g>
  </g>
  <g id="_x39_" class="st4">
    <path class="st5" d="M0 0h1866v1200H0z"/>
    <g class="st6">
      <linearGradient id="SVGID_35_" gradientUnits="userSpaceOnUse" x1="236.04" y1="630.1115" x2="499.5346" y2="383.4356">
        <stop offset="0" stop-color="#6449de"/>
        <stop offset=".35" stop-color="#854cd9"/>
        <stop offset=".75" stop-color="#aa48d4"/>
        <stop offset="1" stop-color="#bd5afd"/>
      </linearGradient>
      <path d="M487.8 379.8L339.1 672.1s-30-93.3-39.5-121.2c-9.5-27.9-33.6-26.4-45-4.4-11.4 22-41.5 81.5-41.5 81.5s-40-124.3-48.1-149.1c-5.4-16.5-21-13.4-26.3-2.9-13.4 26.5-73.3 161.3-73.3 161.3l-7.3 16c-3.8 9.6 8.7 14.4 12.6 8.2 5.2-8.4 74.1-124.6 74.1-124.6s37.2 131.1 46 162.6c4.6 16.4 24 17.7 34.5-.8 14.3-25.2 43.4-77.2 43.4-77.2l37.5 132.9.2.7c6.7 23.9 39 27.7 51.2 6.1l.9-1.6L552 414.2c9.8-17.6 3.3-39.8-14.4-49.3l-.7-.4c-5.4-2.9-11.2-4.2-16.9-4.2-13.2-.1-25.9 7-32.2 19.5" fill="url(#SVGID_35_)"/>
      <path class="st1" d="M633.2 565.3h36.2l27.4 88.1h.5l24.6-88.1h29.9l24.8 88.1h.5l27.1-88.1h35.7l-44.3 136h-33.7l-25.1-83.6h-.5l-25.1 83.6h-33.7l-44.3-136zM859.7 510.1h37.2V581c10.1-10.4 23.8-18.7 40.8-18.7 30.6 0 43.3 18.5 43.3 49.1v89.9h-37.2v-90.9c0-12.2-4.8-20.5-17.7-20.5-11.1 0-21 5.8-29.1 16v95.5h-37.2V510.1zM1011.4 511.4h37.2v31.9h-37.2v-31.9zm0 55.9h37.2v134h-37.2v-134zM1089.9 591.7h-21.5v-26.3h21.5v-33.9h37.2v33.9h37.2v26.3h-37.2v67.6c0 10.1 3.8 15.2 12.4 15.2 6.8 0 13.2-2.3 18.5-6.1l13.7 22.3c-10.4 8.1-24.8 13.7-39.8 13.7-28.4 0-42-13.9-42-44.3v-68.4zM1247.9 562c39 0 60.5 25.6 60.5 62 0 5.3-.5 12.4-1.3 16.5h-89.7c2 23 12.9 34.4 33.4 34.4 13.7 0 26.3-4.6 37.7-11.7l15.5 23.6c-16.7 11.7-35.7 17.7-56 17.7-40 0-68.4-26.6-68.4-72.2.2-43.4 30.6-70.3 68.3-70.3zm-29.6 57.3h55c0-17.2-6.6-30.4-24.3-30.4-15.3 0-27.2 10.6-30.7 30.4zM1396.3 562.3c16.5 0 33.2 5.1 48.1 16.7l-18.7 24.1c-7.8-6.1-17-10.6-28.4-10.6-18 0-32.7 14.2-32.7 40 0 27.1 14.4 42 32.7 42 12.2 0 20.3-4.3 28.6-11.1l20.3 21.5c-14.9 13.2-30.6 19.5-49.9 19.5-39.5 0-69.1-26.6-69.1-71.9 0-43.6 29.4-70.2 69.1-70.2zM1525.5 562.3c38.7 0 67.9 27.6 67.9 69.6 0 44.8-27.4 72.4-67.9 72.4-41 0-68.6-27.6-68.6-72.4 0-42 29.3-69.6 68.6-69.6zm0 114.2c19.2 0 30.4-17.5 30.4-44.3 0-25.1-12.2-41.8-30.4-41.8-18.7 0-31.2 16.7-31.2 41.8.1 26.8 11.2 44.3 31.2 44.3zM1619 511.4h37.2v31.9H1619v-31.9zm0 55.9h37.2v134H1619v-134zM1687.3 565.3h35l1.8 15.7c9.9-10.4 24.3-19 41.3-19 30.4 0 43.3 18.7 43.3 49.4v89.9h-37.2v-90.9c0-12.2-5.1-20.5-17.7-20.5-11.4 0-21.3 5.8-29.4 16v95.5h-37V565.3z"/>
    </g>
  </g>
</svg>