<svg id="Layer_1" xmlns="http://www.w3.org/2000/svg" viewBox="0 0 1866 1200" style="cursor:pointer;">
  <style>
    .st0{fill:#292a2b}
  </style>
  <g id="_x32_">
    <path class="st0" d="M770 689.6h-11.8L719.9 604l-38.1 85.7h-12l-52.6-142h34.2l28 83.2 34.1-83.2h11.7l35.3 83.7 30.2-83.7h32L770 689.6zM932.2 687v-85.9c0-8.6-2.7-15.5-8.1-20.7-5.4-5.2-12.4-7.8-21.1-7.8-5.4 0-10.8 1.5-16.3 4.4s-9.4 6.2-11.7 10v100h-33.1V495.7l33.1-7.8v68.6c8.4-7.6 20-11.5 34.8-11.5 17.4 0 31 4.8 40.6 14.5s14.4 23.5 14.4 41.6V687h-32.6zM1008.7 687V574.3h-17.8v-26.7h50.8V687h-33zm16.8-193.4c5.2 0 9.7 1.8 13.3 5.5 3.7 3.7 5.5 8.1 5.5 13.3s-1.8 9.7-5.5 13.3c-3.7 3.7-8.1 5.5-13.3 5.5-5.2 0-9.7-1.8-13.3-5.5-3.7-3.7-5.5-8.1-5.5-13.3s1.8-9.7 5.5-13.3c3.6-3.7 8.1-5.5 13.3-5.5zM1084.5 573.8h-16.1v-26.2h16.1v-28.4l32.5-12v40.4h38.3v26.2H1117v61c0 10 1.6 17 4.7 21.1s8.6 6.2 16.4 6.2 15.1-2.1 21.9-6.4v29.9c-7.5 2.6-18.3 3.9-32.3 3.9-13.9 0-24.6-3.9-32-11.8s-11.2-19-11.2-33.5v-70.4zM1309.6 627.3H1210c.6 11.1 4.4 19.7 11.5 25.9 7 6.2 16.5 9.2 28.4 9.2 14.8 0 26.1-3.9 33.8-11.6l12.6 24.9c-11.5 9.3-28.6 13.9-51.3 13.9-21.3 0-38.1-6.2-50.4-18.7-12.4-12.5-18.5-29.8-18.5-52.1 0-21.9 6.8-39.7 20.4-53.4 13.6-13.6 29.9-20.4 48.9-20.4 20.2 0 36.5 6 48.7 18.1s18.4 27.4 18.4 46.1c-.1 4-1 10-2.9 18.1zm-98.4-24.5h68.5c-2.3-20.4-13.5-30.6-33.8-30.6-18.6 0-30.2 10.2-34.7 30.6zM1447.7 558.7l-13.9 24.3c-7.6-7.2-17.9-10.8-30.7-10.8-12.3 0-22.1 4.1-29.2 12.3-7.2 8.2-10.7 19.5-10.7 34 0 29.2 13.9 43.9 41.8 43.9 12.1 0 22.7-4 31.9-12l12 25.7c-9.5 5.9-17.7 9.6-24.8 11.2s-15.4 2.3-25.1 2.3c-21.5 0-38.5-6.3-51-18.8s-18.7-30-18.7-52.3c0-21.9 6.8-39.7 20.4-53.2s32.2-20.3 55.7-20.3c16.3 0 30.4 4.5 42.3 13.7zM1465.7 617c0-21.3 6.1-38.6 18.4-51.9 12.3-13.4 28.5-20 48.6-20 21.2 0 37.6 6.4 49.3 19.3 11.7 12.8 17.6 30.4 17.6 52.7 0 22.2-6 39.9-17.9 53s-28.3 19.7-49 19.7c-21.2 0-37.6-6.6-49.4-19.9-11.7-13.4-17.6-31-17.6-52.9zm33.9 0c0 30.7 11.1 46.1 33.2 46.1 10.1 0 18.2-4 24.1-12s8.9-19.4 8.9-34.1c0-30.3-11-45.4-33.1-45.4-10.2 0-18.2 4-24.2 12-6 7.9-8.9 19.1-8.9 33.4zM1634.4 687V574.3h-17.8v-26.7h50.8V687h-33zm16.8-193.4c5.2 0 9.7 1.8 13.3 5.5 3.7 3.7 5.5 8.1 5.5 13.3s-1.8 9.7-5.5 13.3c-3.7 3.7-8.1 5.5-13.3 5.5-5.2 0-9.7-1.8-13.3-5.5-3.7-3.7-5.5-8.1-5.5-13.3s1.8-9.7 5.5-13.3c3.6-3.7 8.1-5.5 13.3-5.5zM1794.9 687v-80.6c0-11.9-2.3-20.6-6.8-26-4.6-5.5-12-8.2-22.3-8.2-4.8 0-9.9 1.3-15.3 4s-9.7 6-12.7 10V687h-32.5V547.6h23.4l6 13c8.9-10.4 21.9-15.6 39.2-15.6 16.6 0 29.7 5 39.2 14.9 9.6 9.9 14.4 23.8 14.4 41.6V687h-32.6z"/>
    <g>
      <linearGradient id="SVGID_1_" gradientUnits="userSpaceOnUse" x1="72.6754" y1="481.7417" x2="486.148" y2="608.0118" gradientTransform="matrix(1 0 0 -1 0 1197.6899)">
        <stop offset="0" stop-color="#6449de"/>
        <stop offset=".35" stop-color="#854cd9"/>
        <stop offset=".75" stop-color="#aa48d4"/>
        <stop offset="1" stop-color="#bd5afd"/>
      </linearGradient>
      <path d="M501.4 523.2c-14.6-14.6-38.4-14.6-53 0l-125 125c-14.6 14.6-14.6 38.4 0 53s38.4 14.6 53 0l125-125c14.6-14.7 14.6-38.4 0-53z" fill="url(#SVGID_1_)"/>
      <linearGradient id="SVGID_2_" gradientUnits="userSpaceOnUse" x1="49.2865" y1="558.3285" x2="462.7592" y2="684.5986" gradientTransform="matrix(1 0 0 -1 0 1197.6899)">
        <stop offset="0" stop-color="#6449de"/>
        <stop offset=".35" stop-color="#854cd9"/>
        <stop offset=".75" stop-color="#aa48d4"/>
        <stop offset="1" stop-color="#bd5afd"/>
      </linearGradient>
      <path d="M352.5 523.2c-14.6-14.6-38.4-14.6-53 0L201 621.6l-98.5-98.5c-14.6-14.6-38.4-14.6-53 0-14.6 14.6-14.6 38.4 0 53L174.4 701s0 .1.1.1c7.3 7.3 16.9 11 26.5 11s19.2-3.7 26.5-11c0 0 0-.1.1-.1l124.9-124.9c14.6-14.6 14.6-38.3 0-52.9z" fill="url(#SVGID_2_)"/>
      <path d="M201 712.1c9.6 0 19.2-3.7 26.5-11 14.7-14.6 14.7-38.3.1-53L201 621.6l-26.6 26.6c-14.6 14.6-14.6 38.4.1 53 7.3 7.3 16.9 10.9 26.5 10.9z" opacity=".13" fill="#fff"/>
    </g>
  </g>
</svg>