<svg id="Layer_1" xmlns="http://www.w3.org/2000/svg" viewBox="0 0 1866 1200" style="cursor:pointer;">
  <style>
    .st0{fill:#292a2b}
  </style>
  <g id="_x36_">
    <path class="st0" d="M767.7 687.7h-12.1l-39.1-87.5-38.9 87.5h-12.2l-53.7-145h35l28.6 84.9 34.8-84.9h12l36 85.5 30.8-85.5h32.7l-53.9 145zM933.3 685v-87.7c0-8.8-2.8-15.8-8.2-21.1s-12.7-8-21.5-8c-5.5 0-11 1.5-16.6 4.5s-9.6 6.4-12 10.2V685h-33.8V489.6l33.8-8v70c8.6-7.8 20.4-11.7 35.5-11.7 17.8 0 31.6 4.9 41.5 14.8 9.8 9.9 14.8 24 14.8 42.5V685h-33.5zM1011.5 685V569.9h-18.2v-27.2h51.8V685h-33.6zm17.1-197.5c5.3 0 9.9 1.9 13.6 5.6 3.8 3.8 5.7 8.3 5.7 13.6 0 5.3-1.9 9.9-5.7 13.6-3.8 3.8-8.3 5.7-13.6 5.7-5.3 0-9.9-1.9-13.6-5.7-3.8-3.8-5.7-8.3-5.7-13.6 0-5.3 1.9-9.9 5.7-13.6 3.7-3.7 8.3-5.6 13.6-5.6zM1088.8 569.4h-16.5v-26.7h16.5v-29l33.2-12.2v41.2h39.1v26.7H1122v62.3c0 10.2 1.6 17.4 4.8 21.6 3.2 4.2 8.8 6.3 16.8 6.3s15.4-2.2 22.3-6.5v30.6c-7.7 2.7-18.7 4-33 4-14.2 0-25.1-4-32.7-12s-11.4-19.4-11.4-34.2v-72.1zM1318.7 624H1217c.6 11.3 4.5 20.2 11.7 26.4 7.2 6.3 16.8 9.4 29 9.4 15.2 0 26.7-3.9 34.6-11.8l12.9 25.4c-11.7 9.5-29.2 14.2-52.4 14.2-21.7 0-38.9-6.4-51.5-19.1-12.6-12.7-18.9-30.5-18.9-53.2 0-22.4 6.9-40.6 20.8-54.5s30.5-20.9 49.9-20.9c20.6 0 37.2 6.2 49.7 18.5s18.7 28 18.7 47.1c0 4.1-.9 10.3-2.8 18.5zm-100.4-25h69.9c-2.3-20.8-13.8-31.2-34.6-31.2-19 0-30.7 10.4-35.3 31.2zM1459.8 554l-14.2 24.9c-7.8-7.3-18.3-11-31.4-11-12.6 0-22.5 4.2-29.8 12.6-7.3 8.4-11 20-11 34.8 0 29.9 14.2 44.8 42.7 44.8 12.3 0 23.2-4.1 32.6-12.2l12.2 26.2c-9.7 6-18.1 9.8-25.3 11.4-7.2 1.6-15.7 2.4-25.6 2.4-22 0-39.3-6.4-52-19.2s-19.1-30.6-19.1-53.4c0-22.4 7-40.5 20.9-54.4s32.9-20.7 56.9-20.7c16.4-.2 30.8 4.5 43.1 13.8zM1478.1 613.5c0-21.7 6.3-39.4 18.8-53s29.1-20.5 49.6-20.5c21.6 0 38.4 6.6 50.4 19.7s17.9 31.1 17.9 53.8-6.1 40.7-18.3 54.1c-12.2 13.4-28.9 20.1-50 20.1-21.6 0-38.4-6.8-50.4-20.3s-18-31.5-18-53.9zm34.6 0c0 31.4 11.3 47.1 33.9 47.1 10.4 0 18.6-4.1 24.7-12.2 6.1-8.1 9.1-19.8 9.1-34.8 0-30.9-11.3-46.4-33.8-46.4-10.4 0-18.6 4.1-24.7 12.2-6.2 8.1-9.2 19.5-9.2 34.1zM1650.4 685V569.9h-18.2v-27.2h51.8V685h-33.6zm17.1-197.5c5.3 0 9.9 1.9 13.6 5.6 3.8 3.8 5.7 8.3 5.7 13.6 0 5.3-1.9 9.9-5.7 13.6-3.8 3.8-8.3 5.7-13.6 5.7-5.3 0-9.9-1.9-13.6-5.7-3.8-3.8-5.7-8.3-5.7-13.6 0-5.3 1.9-9.9 5.7-13.6 3.7-3.7 8.3-5.6 13.6-5.6zM1814.2 685v-82.3c0-12.1-2.3-21-7-26.6s-12.3-8.4-22.8-8.4c-4.9 0-10.1 1.4-15.6 4.1-5.5 2.8-9.9 6.2-13 10.2v103h-33.2V542.7h23.9l6.1 13.3c9-10.6 22.4-16 40-16 16.9 0 30.3 5.1 40.1 15.2s14.7 24.3 14.7 42.5V685h-33.2z"/>
    <linearGradient id="SVGID_1_" gradientUnits="userSpaceOnUse" x1="198.1948" y1="569.2374" x2="273.5367" y2="717.0237" gradientTransform="matrix(1 0 0 -1 0 1197.6899)">
      <stop offset="0" stop-color="#854cd9"/>
      <stop offset=".0793" stop-color="#884cd9"/>
      <stop offset="1" stop-color="#aa48d4"/>
    </linearGradient>
    <path fill="url(#SVGID_1_)" d="M208.8 459.5l-88.3 281h96.1l88.3-281z"/>
    <linearGradient id="SVGID_2_" gradientUnits="userSpaceOnUse" x1="65.5869" y1="710.7224" x2="123.5422" y2="568.7317" gradientTransform="matrix(1 0 0 -1 0 1197.6899)">
      <stop offset="0" stop-color="#6449de"/>
      <stop offset="1" stop-color="#854cd9"/>
    </linearGradient>
    <path d="M158 590.7l-33.3-101.3c-5.9-17.8-22.5-29.9-41.3-29.9H18.5l92.3 280.9h.1L158 590.7z" fill="url(#SVGID_2_)"/>
    <linearGradient id="SVGID_3_" gradientUnits="userSpaceOnUse" x1="413.3745" y1="594.7831" x2="579.9963" y2="880.2134" gradientTransform="matrix(1 0 0 -1 0 1197.6899)">
      <stop offset="0" stop-color="#aa48d4"/>
      <stop offset="1" stop-color="#652d90"/>
    </linearGradient>
    <path d="M398.4 489.3l-78.9 251.2h96.1l88.3-280.9H439c-18.6-.1-35.1 12-40.6 29.7z" fill="url(#SVGID_3_)"/>
    <linearGradient id="SVGID_4_" gradientUnits="userSpaceOnUse" x1="286.4082" y1="632.2507" x2="342.9147" y2="555.4597" gradientTransform="matrix(1 0 0 -1 0 1197.6899)">
      <stop offset="0" stop-color="#aa48d4"/>
      <stop offset="1" stop-color="#bd5afd"/>
    </linearGradient>
    <path fill="url(#SVGID_4_)" d="M309.8 740.5l47.2-150-42.6-130.7-47.3 150.4 42.4 130.3h1z"/>
  </g>
</svg>