<svg id="Layer_1" xmlns="http://www.w3.org/2000/svg" viewBox="0 0 1866 1200">
  <style>
    .st1{fill:#292a2b}
  </style>
  <g id="_x39_">
    <linearGradient id="SVGID_1_" gradientUnits="userSpaceOnUse" x1="236.067" y1="567.5497" x2="499.5616" y2="814.2255" gradientTransform="matrix(1 0 0 -1 0 1197.6899)">
      <stop offset="0" stop-color="#6449de"/>
      <stop offset=".35" stop-color="#854cd9"/>
      <stop offset=".75" stop-color="#aa48d4"/>
      <stop offset="1" stop-color="#bd5afd"/>
    </linearGradient>
    <path d="M487.8 379.8L339.1 672.1s-30-93.3-39.5-121.2-33.6-26.4-45-4.4-41.5 81.5-41.5 81.5-40-124.3-48.1-149.1c-5.4-16.5-21-13.4-26.3-2.9-13.4 26.5-73.3 161.3-73.3 161.3l-7.3 16c-3.8 9.6 8.7 14.4 12.6 8.2 5.2-8.4 74.1-124.6 74.1-124.6s37.2 131.1 46 162.6c4.6 16.4 24 17.7 34.5-.8 14.3-25.2 43.4-77.2 43.4-77.2l37.5 132.9.2.7c6.7 23.9 39 27.7 51.2 6.1l.9-1.6L552 414.2c9.8-17.6 3.3-39.8-14.4-49.3l-.7-.4c-5.4-2.9-11.2-4.2-16.9-4.2-13.2-.1-25.9 7-32.2 19.5" fill="url(#SVGID_1_)"/>
    <path class="st1" d="M633.2 565.3h36.2l27.4 88.1h.5l24.6-88.1h29.9l24.8 88.1h.5l27.1-88.1h35.7l-44.3 136h-33.7l-25.1-83.6h-.5l-25.1 83.6h-33.7l-44.3-136zM859.7 510.1h37.2V581c10.1-10.4 23.8-18.7 40.8-18.7 30.6 0 43.3 18.5 43.3 49.1v89.9h-37.2v-90.9c0-12.2-4.8-20.5-17.7-20.5-11.1 0-21 5.8-29.1 16v95.5h-37.2l-.1-191.3zM1011.4 511.4h37.2v31.9h-37.2v-31.9zm0 55.9h37.2v134h-37.2v-134zM1089.9 591.7h-21.5v-26.3h21.5v-33.9h37.2v33.9h37.2v26.3h-37.2v67.6c0 10.1 3.8 15.2 12.4 15.2 6.8 0 13.2-2.3 18.5-6.1l13.7 22.3c-10.4 8.1-24.8 13.7-39.8 13.7-28.4 0-42-13.9-42-44.3v-68.4zM1247.9 562c39 0 60.5 25.6 60.5 62 0 5.3-.5 12.4-1.3 16.5h-89.7c2 23 12.9 34.4 33.4 34.4 13.7 0 26.3-4.6 37.7-11.7l15.5 23.6c-16.7 11.7-35.7 17.7-56 17.7-40 0-68.4-26.6-68.4-72.2.2-43.4 30.6-70.3 68.3-70.3zm-29.6 57.3h55c0-17.2-6.6-30.4-24.3-30.4-15.3 0-27.2 10.6-30.7 30.4zM1396.3 562.3c16.5 0 33.2 5.1 48.1 16.7l-18.7 24.1c-7.8-6.1-17-10.6-28.4-10.6-18 0-32.7 14.2-32.7 40 0 27.1 14.4 42 32.7 42 12.2 0 20.3-4.3 28.6-11.1l20.3 21.5c-14.9 13.2-30.6 19.5-49.9 19.5-39.5 0-69.1-26.6-69.1-71.9 0-43.6 29.4-70.2 69.1-70.2zM1525.5 562.3c38.7 0 67.9 27.6 67.9 69.6 0 44.8-27.4 72.4-67.9 72.4-41 0-68.6-27.6-68.6-72.4 0-42 29.3-69.6 68.6-69.6zm0 114.2c19.2 0 30.4-17.5 30.4-44.3 0-25.1-12.2-41.8-30.4-41.8-18.7 0-31.2 16.7-31.2 41.8.1 26.8 11.2 44.3 31.2 44.3zM1619 511.4h37.2v31.9H1619v-31.9zm0 55.9h37.2v134H1619v-134zM1687.3 565.3h35l1.8 15.7c9.9-10.4 24.3-19 41.3-19 30.4 0 43.3 18.7 43.3 49.4v89.9h-37.2v-90.9c0-12.2-5.1-20.5-17.7-20.5-11.4 0-21.3 5.8-29.4 16v95.5h-37V565.3h-.1z"/>
  </g>
</svg>