<svg id="Layer_1" xmlns="http://www.w3.org/2000/svg" viewBox="0 0 1866 1200" style="cursor:pointer;">
  <style>
    .st0{fill:#292a2b}
  </style>
  <g id="_x37_">
    <path class="st0" d="M587.2 548.1h38.2l28.9 93h.5l25.9-93h31.5l26.2 93h.5l28.6-93h37.7l-46.8 143.5h-35.5l-26.5-88.2h-.5l-26.5 88.2h-35.5l-46.7-143.5zM826.1 489.8h39.3v74.8c10.7-11 25.1-19.8 43-19.8 32.3 0 45.7 19.5 45.7 51.8v94.8h-39.3v-95.9c0-12.8-5.1-21.6-18.7-21.6-11.8 0-22.2 6.1-30.7 16.8v100.7h-39.3V489.8zM986.1 491.2h39.3v33.7h-39.3v-33.7zm0 59h39.3v141.3h-39.3V550.2zM1068.9 575.9h-22.7v-27.8h22.7v-35.8h39.3v35.8h39.3v27.8h-39.3v71.3c0 10.7 4 16 13.1 16 7.2 0 13.9-2.4 19.5-6.4l14.4 23.5c-11 8.5-26.2 14.4-41.9 14.4-29.9 0-44.4-14.7-44.4-46.8v-72zM1235.7 544.6c41.1 0 63.9 27 63.9 65.5 0 5.6-.5 13.1-1.3 17.4h-94.6c2.1 24.3 13.6 36.3 35.3 36.3 14.4 0 27.8-4.8 39.8-12.3l16.3 24.8c-17.6 12.3-37.7 18.7-59 18.7-42.2 0-72.1-28.1-72.1-76.1-.2-46 31.9-74.3 71.7-74.3zm-31.3 60.4h58c0-18.2-6.9-32.1-25.7-32.1-16 0-28.5 11.3-32.3 32.1zM1392.3 544.9c17.4 0 35 5.3 50.8 17.6l-19.8 25.4c-8.3-6.4-17.9-11.2-29.9-11.2-19 0-34.5 15-34.5 42.2 0 28.6 15.2 44.4 34.5 44.4 12.8 0 21.4-4.5 30.2-11.8l21.4 22.7c-15.8 13.9-32.3 20.6-52.6 20.6-41.7 0-72.9-28.1-72.9-75.9-.2-46 30.8-74 72.8-74zM1528.5 544.9c40.9 0 71.6 29.1 71.6 73.5 0 47.3-28.9 76.4-71.6 76.4-43.3 0-72.4-29.1-72.4-76.4 0-44.4 31-73.5 72.4-73.5zm0 120.5c20.3 0 32.1-18.4 32.1-46.8 0-26.5-12.8-44.1-32.1-44.1-19.8 0-32.9 17.6-32.9 44.1.1 28.4 11.8 46.8 32.9 46.8zM1627.1 491.2h39.3v33.7h-39.3v-33.7zm0 59h39.3v141.3h-39.3V550.2zM1699.3 548.1h36.9l1.9 16.6c10.4-11 25.7-20 43.6-20 32.1 0 45.7 19.8 45.7 52.1v94.8H1788v-95.9c0-12.8-5.3-21.6-18.7-21.6-12 0-22.4 6.1-31 16.8v100.7h-39V548.1z"/>
    <g>
      <linearGradient id="SVGID_1_" gradientUnits="userSpaceOnUse" x1="80.5225" y1="565.4459" x2="442.6577" y2="648.1071" gradientTransform="matrix(1 0 0 -1 0 1197.6899)">
        <stop offset="0" stop-color="#6449de"/>
        <stop offset=".35" stop-color="#854cd9"/>
        <stop offset="1" stop-color="#aa48d4"/>
      </linearGradient>
      <path d="M183.3 634.2c-2.6-.4-5.1-.5-7.6-.4-14.1.6-27.7-5.8-37.7-15.8l-7.9-7.9c-10.1-10.1-15-24-14.9-38.3v-.2c0-10.6-4.3-20.1-11.2-27.1-.5-.4-.9-.8-1.4-1.3-.4-.4-.8-.8-1.3-1.1-15-12.4-37.3-11.7-51.4 2.4-14.1 14.1-14.9 36.4-2.4 51.4.3.4.7.8 1.1 1.2.4.5.8 1 1.3 1.4 6.9 6.9 16.5 11.2 27.1 11.2h.2c14.9 0 29.3 5.9 39.9 16.4l8.4 8.4c9.6 9.6 13.9 22.9 13.7 36.5 0 2.4.1 4.9.6 7.4 2.7 15.8 15.6 28.5 31.5 31 26 4 48-18.1 43.9-44-2.7-15.9-15.7-28.8-31.9-31.2z" fill="url(#SVGID_1_)"/>
      <linearGradient id="SVGID_2_" gradientUnits="userSpaceOnUse" x1="85.574" y1="543.3157" x2="447.7091" y2="625.9769" gradientTransform="matrix(1 0 0 -1 0 1197.6899)">
        <stop offset="0" stop-color="#6449de"/>
        <stop offset=".35" stop-color="#854cd9"/>
        <stop offset="1" stop-color="#aa48d4"/>
      </linearGradient>
      <path d="M378.6 609.9c10.6 0 20.1-4.3 27.1-11.2.5-.5.9-1 1.3-1.4s.8-.8 1.1-1.2c12.4-15 11.6-37.3-2.4-51.4-14.1-14.1-36.3-14.9-51.4-2.4-.4.4-.8.8-1.3 1.1-.5.4-.9.8-1.4 1.3-6.9 6.9-11.2 16.5-11.2 27.1v.2c.1 14.3-4.8 28.2-14.9 38.3l-7.9 7.9c-10 10-23.6 16.4-37.8 15.8H277c-14.2.6-27.7-5.7-37.8-15.8l-7.9-7.9c-10.1-10.1-15-24-14.9-38.3v-.2c0-10.6-4.3-20.1-11.2-27.1-.5-.4-.9-.8-1.4-1.3-.4-.4-.8-.8-1.3-1.1-15-12.4-37.3-11.7-51.4 2.4-14.1 14.1-14.9 36.4-2.4 51.4.4.4.7.8 1.1 1.2.4.5.8 1 1.3 1.4 6.9 6.9 16.5 11.2 27.1 11.2h.2c14.9 0 29.3 5.9 39.9 16.4l8.4 8.4c8.6 8.6 13 20.2 13.6 32.3-2.6 21.3 12.2 39.6 32.1 42.6H272.7c1.3.2 2.5.3 3.8.4.7 0 1.3 0 1.9.1.6 0 1.3 0 1.9-.1 1.3-.1 2.5-.2 3.8-.4H284.4c19.9-3 34.7-21.4 32.1-42.6.6-12.1 5-23.7 13.6-32.3l8.4-8.4c10.6-10.6 24.9-16.5 39.9-16.4h.2z" fill="url(#SVGID_2_)"/>
      <linearGradient id="SVGID_3_" gradientUnits="userSpaceOnUse" x1="95.4836" y1="499.9024" x2="457.6186" y2="582.5638" gradientTransform="matrix(1 0 0 -1 0 1197.6899)">
        <stop offset="0" stop-color="#6449de"/>
        <stop offset=".35" stop-color="#854cd9"/>
        <stop offset="1" stop-color="#aa48d4"/>
      </linearGradient>
      <path d="M506.1 544.5c-14.1-14.1-36.3-14.9-51.4-2.4-.4.4-.9.8-1.3 1.1-.5.4-.9.8-1.4 1.3-6.9 6.9-11.2 16.5-11.2 27.1v.2c.1 14.3-4.8 28.2-14.9 38.3L418 618c-10 10-23.6 16.4-37.8 15.8-2.5-.1-5 0-7.6.4-16.1 2.5-29.2 15.3-31.8 31.4-4.2 26 17.9 48.1 43.9 44 15.8-2.5 28.7-15.2 31.5-31 .4-2.5.6-5 .6-7.4-.2-13.6 4.1-26.9 13.7-36.5l8.4-8.4c10.6-10.6 24.9-16.5 39.9-16.4h.2c10.6 0 20.1-4.3 27.1-11.2.5-.5.9-1 1.3-1.4s.8-.8 1.1-1.2c12.4-15.2 11.6-37.5-2.4-51.6z" fill="url(#SVGID_3_)"/>
    </g>
  </g>
</svg>